<svg width="19" height="16" viewBox="0 0 19 16" fill="none" xmlns="http://www.w3.org/2000/svg">
<path d="M17.5352 6.6905C17.4589 6.67811 17.3816 6.6724 17.3043 6.6734H4.14248L4.42948 6.53991C4.71001 6.40714 4.96522 6.22643 5.18368 6.00597L8.87459 2.31505C9.36069 1.85102 9.44237 1.10454 9.06815 0.546353C8.63261 -0.0484566 7.79735 -0.177605 7.2025 0.257938C7.15445 0.293145 7.10877 0.331522 7.06585 0.37282L0.391503 7.04716C-0.130097 7.56818 -0.130556 8.41336 0.39046 8.93496C0.390793 8.93529 0.391169 8.93567 0.391503 8.936L7.06585 15.6103C7.58786 16.1309 8.43304 16.1297 8.95364 15.6077C8.99461 15.5666 9.03286 15.5229 9.06815 15.4769C9.44237 14.9187 9.36069 14.1722 8.87459 13.7082L5.19036 10.0106C4.99451 9.81451 4.76933 9.65012 4.52292 9.52335L4.12246 9.34314H17.2309C17.9128 9.36846 18.5111 8.89212 18.6392 8.22185C18.7572 7.49414 18.2629 6.80856 17.5352 6.6905Z" fill="#22303B"/>
</svg>
