<svg width="44" height="44" viewBox="0 0 44 44" fill="none" xmlns="http://www.w3.org/2000/svg">
<rect width="44" height="44" rx="3" fill="#DFE3E6"/>
<path d="M32.7962 20.7577C31.9846 21.1695 31.0681 21.4029 30.0974 21.4029C29.0632 21.4029 28.0894 21.1395 27.2395 20.6765C27.113 20.8911 26.9736 21.0971 26.8223 21.2936C26.8609 21.3154 26.8993 21.3351 26.938 21.3579C28.604 22.2806 29.9205 23.6622 30.7673 25.2941C31.6457 23.9009 32.3349 22.377 32.7962 20.7577Z" fill="white"/>
<path d="M33.7308 18.6458C33.5563 18.8415 33.3665 19.0232 33.163 19.1887C33.3596 18.138 33.4636 17.0551 33.4636 15.9483C33.4636 14.3781 33.2536 12.8566 32.8655 11.4072C32.9417 11.46 33.016 11.5152 33.089 11.5722C33.0162 11.5153 32.942 11.4603 32.8661 11.4076C32.0796 10.8622 31.1254 10.5417 30.0958 10.5417C28.2818 10.5417 26.7026 11.5361 25.8652 13.0075C27.2072 14.1075 28.0651 15.7771 28.0651 17.6437C28.0651 18.3488 27.9418 19.0254 27.7171 19.6543C28.4208 20.0496 29.2312 20.2773 30.0959 20.2773C31.2587 20.2773 32.3258 19.869 33.163 19.1887C33.3666 19.0232 33.5564 18.8416 33.7308 18.6458Z" fill="white"/>
<path d="M7.56402 30.9925C7.64058 29.4797 7.76437 27.78 7.84542 27.3005C7.82741 27.8115 7.92647 29.5472 8.04802 31.0667C9.42407 31.2647 10.8662 31.3951 12.3532 31.4521C12.3268 30.6569 12.3126 29.9847 12.3126 29.6944V29.6607C12.3126 26.2176 14.1806 23.0438 17.1901 21.3682C17.2336 21.3404 17.2766 21.3158 17.3199 21.2896C17.1698 21.0943 17.0315 20.8896 16.9059 20.6765C16.0559 21.1395 15.0821 21.4029 14.048 21.4029C12.5291 21.4029 11.1414 20.8339 10.0841 19.8993C9.97162 19.9607 9.85833 20.0267 9.74317 20.1011C7.16327 21.5238 5.41406 24.2726 5.41406 27.4265V27.4603C5.41406 27.8377 5.43982 28.9359 5.48832 30.1001C5.82908 30.3513 6.17935 30.5898 6.53818 30.8164C6.87583 30.8792 7.21793 30.9381 7.56402 30.9925Z" fill="white"/>
<path d="M14.0475 10.5417C11.3591 10.5417 9.17969 12.7211 9.17969 15.4095C9.17969 18.0979 11.3591 20.2773 14.0475 20.2773C14.9121 20.2773 15.7225 20.0495 16.4262 19.6542C16.2015 19.0253 16.0782 18.3487 16.0782 17.6436C16.0782 15.7771 16.9362 14.1075 18.2781 13.0074C17.4408 11.536 15.8615 10.5417 14.0475 10.5417Z" fill="white"/>
<path d="M17.3425 33.4614C22.5373 33.0342 27.0987 30.3382 30.0315 26.3685C30.1921 26.7429 30.326 27.1314 30.4314 27.5314C30.3262 27.1311 30.1927 26.7424 30.0319 26.3679C29.2953 24.6515 28.0011 23.2306 26.3774 22.3352C26.2587 22.2648 26.1407 22.2026 26.023 22.1441C24.9672 23.0723 23.5844 23.637 22.0714 23.637C20.5526 23.637 19.1648 23.0681 18.1075 22.1335C17.995 22.1949 17.8817 22.2609 17.7666 22.3352C15.1867 23.758 13.4375 26.5068 13.4375 29.6607V29.6945C13.4375 30.1267 13.4713 31.5045 13.5343 32.8439C14.1984 32.988 14.885 33.1163 15.5874 33.2266C15.664 31.7138 15.7878 30.0142 15.8688 29.5346C15.8508 30.0457 15.9498 31.7813 16.0714 33.3009C16.489 33.361 16.9135 33.4138 17.3425 33.4614C17.7128 33.5025 18.0872 33.5387 18.4652 33.5701C18.0872 33.5386 17.7127 33.5025 17.3425 33.4614Z" fill="white"/>
<path d="M23.0646 22.4093C25.6969 21.8625 27.3874 19.2853 26.8406 16.6531C26.2938 14.0209 23.7167 12.3303 21.0844 12.8772C18.4522 13.424 16.7616 16.0011 17.3085 18.6333C17.8553 21.2656 20.4324 22.9561 23.0646 22.4093Z" fill="white"/>
<path d="M31.0113 25.8044C31.2377 26.3125 31.4199 26.8415 31.5547 27.3857C31.5558 27.3903 31.557 27.3947 31.5581 27.3992C31.6001 27.5699 31.6367 27.7423 31.6692 27.9158C31.673 27.9357 31.6768 27.9555 31.6804 27.9754C31.7106 28.142 31.7361 28.3099 31.7574 28.4787C31.7605 28.5038 31.7634 28.5288 31.7663 28.5539C31.7862 28.7226 31.8021 28.8921 31.8129 29.0626C31.8141 29.0831 31.8148 29.1037 31.816 29.1243C31.8261 29.3023 31.8324 29.481 31.8324 29.6607V29.6945C31.8324 29.7314 31.8321 29.7743 31.8317 29.8225C31.8312 29.8707 31.8306 29.9243 31.8297 29.9828C31.8279 30.0997 31.8253 30.2362 31.8218 30.3881C31.8149 30.6918 31.8046 31.0573 31.7912 31.4521C32.9065 31.4092 33.996 31.3249 35.0522 31.2012C35.4042 31.16 35.7526 31.1144 36.0969 31.0645C36.1119 30.8746 36.1265 30.6813 36.1406 30.4875C36.1687 30.0998 36.1949 29.71 36.2175 29.3405C36.2288 29.1558 36.2393 28.9761 36.2486 28.8043C36.2674 28.4607 36.2818 28.1486 36.2904 27.8905C36.2947 27.7615 36.2975 27.6459 36.2988 27.5466C36.3 27.4474 36.2996 27.3644 36.2973 27.3005C36.3077 27.3605 36.3187 27.4394 36.3303 27.5347C36.3418 27.6299 36.3538 27.7415 36.366 27.8666C36.3722 27.9292 36.3783 27.9951 36.3846 28.0641C36.4034 28.2711 36.4226 28.5055 36.4417 28.7581C36.4544 28.9266 36.4671 29.1031 36.4796 29.2849C36.492 29.4668 36.5042 29.654 36.5161 29.8438C36.5279 30.0337 36.5394 30.2262 36.5502 30.4185C36.5611 30.6109 36.5714 30.8031 36.581 30.9925C37.2834 30.8822 37.9677 30.7538 38.6318 30.6098C38.6563 30.1074 38.6764 29.5998 38.6919 29.1386C38.697 28.9849 38.7017 28.8363 38.7058 28.6948C38.71 28.5533 38.7136 28.4189 38.7167 28.2936C38.7199 28.1682 38.7225 28.0518 38.7246 27.9464C38.7288 27.7355 38.7309 27.5684 38.7309 27.4603V27.4265C38.7309 27.0323 38.7036 26.6444 38.6507 26.2646C38.6242 26.0747 38.5914 25.8868 38.5524 25.7012C38.455 25.2372 38.3191 24.7874 38.1481 24.3551C37.943 23.8363 37.6874 23.343 37.3876 22.8811C37.2876 22.7271 37.1827 22.5766 37.0731 22.4299C37.0184 22.3565 36.9624 22.284 36.9053 22.2125C36.7339 21.9981 36.5523 21.7922 36.361 21.5957C35.7873 21.0063 35.1274 20.5013 34.4018 20.1011C34.283 20.0307 34.1651 19.9685 34.0474 19.91C33.9619 19.9851 33.8737 20.057 33.784 20.1271C33.7634 20.1433 33.7427 20.1591 33.7219 20.175C33.6343 20.2416 33.5454 20.3067 33.4542 20.3686C33.4519 20.3702 33.4498 20.3718 33.4475 20.3734C33.3452 20.4426 33.2405 20.5086 33.1339 20.5715C33.1288 20.5745 33.1237 20.5773 33.1187 20.5803C33.0126 20.6425 32.9046 20.7019 32.7945 20.7577C32.3332 22.377 31.6441 23.901 30.7656 25.2942C30.8509 25.4586 30.9314 25.6256 31.007 25.7949C31.0085 25.7981 31.0099 25.8013 31.0113 25.8044Z" fill="white"/>
<path d="M32.8652 11.4072C33.2534 12.8566 33.4634 14.3781 33.4634 15.9483C33.4634 17.0551 33.3594 18.138 33.1627 19.1887C33.3663 19.0232 33.5561 18.8415 33.7305 18.6458C33.7379 18.6375 33.745 18.629 33.7523 18.6207C33.8007 18.5657 33.8479 18.5096 33.8938 18.4524C33.9051 18.4383 33.9161 18.424 33.9272 18.4098C33.9685 18.3572 34.0087 18.3038 34.0479 18.2494C34.06 18.2325 34.0721 18.2156 34.0841 18.1985C34.1216 18.145 34.1579 18.0905 34.1934 18.0354C34.2045 18.018 34.2159 18.0007 34.2269 17.9832C34.263 17.9252 34.2978 17.8663 34.3315 17.8068C34.34 17.7919 34.3489 17.7772 34.3572 17.7621C34.3966 17.691 34.4343 17.6187 34.4702 17.5455C34.4719 17.542 34.4738 17.5386 34.4755 17.535C34.5143 17.4554 34.551 17.3745 34.5855 17.2924C34.5862 17.2906 34.5869 17.2887 34.5876 17.2869C34.6196 17.2107 34.6494 17.1333 34.6775 17.0552C34.6855 17.0329 34.6926 17.0101 34.7003 16.9877C34.7203 16.9295 34.7396 16.871 34.7573 16.8119C34.766 16.783 34.7739 16.7538 34.7821 16.7247C34.7972 16.6709 34.8115 16.6169 34.8248 16.5624C34.8326 16.5303 34.8399 16.4981 34.8471 16.4658C34.8588 16.413 34.8695 16.3598 34.8795 16.3064C34.8857 16.273 34.8919 16.2397 34.8974 16.2061C34.9064 16.1518 34.9139 16.097 34.9211 16.0421C34.9253 16.0094 34.93 15.9768 34.9336 15.9438C34.9402 15.8839 34.9449 15.8234 34.9492 15.7628C34.9513 15.7346 34.9541 15.7067 34.9557 15.6783C34.9605 15.5893 34.9634 15.4997 34.9634 15.4094C34.9634 15.3141 34.9599 15.2196 34.9545 15.1256C34.9528 15.0965 34.9501 15.0677 34.9479 15.0387C34.9429 14.9731 34.937 14.9077 34.9295 14.8429C34.9258 14.8108 34.9216 14.7789 34.9173 14.7471C34.9086 14.683 34.8985 14.6194 34.8873 14.5562C34.8822 14.5278 34.8776 14.4993 34.8721 14.4711C34.8564 14.3906 34.8387 14.3108 34.8191 14.2318C34.8168 14.2225 34.815 14.213 34.8126 14.2038C34.7896 14.1134 34.7638 14.0242 34.7357 13.936C34.73 13.9179 34.7235 13.9002 34.7176 13.8822C34.6946 13.8128 34.6704 13.744 34.6444 13.6759C34.6355 13.6525 34.6261 13.6293 34.6169 13.606C34.591 13.5414 34.5639 13.4774 34.5354 13.4141C34.5263 13.394 34.5174 13.3737 34.5081 13.3537C34.4723 13.2771 34.4349 13.2015 34.3954 13.1272C34.3929 13.1225 34.3906 13.1177 34.3881 13.113C34.2994 12.9477 34.2012 12.7883 34.0946 12.6351C34.0868 12.6239 34.0788 12.6129 34.0709 12.6018C34.0244 12.5362 33.9765 12.4717 33.9269 12.4086C33.9188 12.3982 33.9107 12.3878 33.9025 12.3775C33.7266 12.157 33.5322 11.952 33.3212 11.7651C33.3192 11.7634 33.3173 11.7617 33.3153 11.76C33.2475 11.7001 33.1778 11.6423 33.1067 11.5862C33.1007 11.5815 33.0948 11.5768 33.0888 11.5721C33.0158 11.5152 32.9414 11.4601 32.8652 11.4072Z" fill="white"/>
<path d="M5.51088 30.61C5.84786 30.6831 6.1908 30.7519 6.53846 30.8166C6.53846 30.8166 6.53855 30.8166 6.53861 30.8167L6.53858 30.8166C6.1796 30.59 5.82918 30.3513 5.48828 30.1001C5.48828 30.1001 5.48831 30.1002 5.48831 30.1002V30.1003C5.49537 30.2695 5.50289 30.44 5.51088 30.61Z" fill="#D3D1D2"/>
<path d="M17.3438 33.4614C17.714 33.5025 18.0885 33.5386 18.4664 33.5701C18.4902 33.5721 18.5142 33.5739 18.538 33.5758C18.9055 33.6059 19.2763 33.6318 19.6505 33.6525C19.6575 33.6529 19.6645 33.6535 19.6715 33.6538C20.0316 33.6736 20.3952 33.6879 20.7608 33.6988C20.8332 33.701 20.9058 33.7028 20.9784 33.7045C21.3408 33.7136 21.7049 33.7196 22.0721 33.7196C22.8564 33.7196 23.6299 33.699 24.3903 33.6588C25.1282 33.6198 25.8534 33.5618 26.5647 33.4867C27.0753 33.4328 27.5788 33.3703 28.0738 33.2986C28.1111 32.8238 28.1464 32.328 28.1768 31.8552C28.1889 31.6661 28.2003 31.4806 28.2107 31.3017C28.2208 31.1272 28.2299 30.9591 28.2381 30.7995C28.2424 30.7136 28.2465 30.6299 28.2502 30.5495C28.2572 30.3963 28.263 30.2537 28.2673 30.1246C28.2694 30.0589 28.2713 29.9969 28.2727 29.9385C28.2768 29.7677 28.2775 29.6298 28.2742 29.5346C28.3158 29.7744 28.3676 30.3186 28.4186 30.9923C28.4313 31.1607 28.444 31.3372 28.4564 31.5191C28.4689 31.7009 28.4811 31.8881 28.4929 32.078C28.5048 32.2678 28.5162 32.4603 28.5271 32.6526C28.538 32.845 28.5482 33.0372 28.5578 33.2266C29.2602 33.1163 29.9446 32.988 30.6087 32.8439C30.674 31.5044 30.7077 30.1267 30.7077 29.6944V29.6607C30.7077 29.5302 30.7037 29.4006 30.6977 29.2715C30.6963 29.24 30.6946 29.2085 30.6928 29.177C30.6778 28.9156 30.6511 28.6574 30.6125 28.4029C30.6092 28.3811 30.6057 28.3592 30.6023 28.3374C30.5601 28.0735 30.506 27.8135 30.4397 27.5583C30.4374 27.5493 30.435 27.5404 30.4326 27.5314C30.3273 27.1314 30.1933 26.7429 30.0327 26.3685C27.0999 30.3382 22.5386 33.0342 17.3438 33.4614Z" fill="white"/>
</svg>
