<svg width="31" height="22" viewBox="0 0 31 22" fill="none" xmlns="http://www.w3.org/2000/svg">
<path d="M6.3977 10.5024C4.43582 10.5024 2.83984 8.92089 2.83984 6.9776C2.83984 5.03408 4.43582 3.45259 6.3977 3.45259C8.35934 3.45259 9.95508 5.03383 9.95508 6.9776C9.95508 8.92113 8.35934 10.5024 6.3977 10.5024ZM6.3977 4.44186C4.98118 4.44186 3.82912 5.57943 3.82912 6.9776C3.82912 8.37553 4.98118 9.5131 6.3977 9.5131C7.81374 9.5131 8.9658 8.37553 8.9658 6.9776C8.9658 5.57943 7.81374 4.44186 6.3977 4.44186Z" fill="#2571EB"/>
<path d="M7.82959 20.2618H1.6249C0.911925 20.2618 0.332031 19.6855 0.332031 18.9771V17.3592C0.332031 14.047 3.05326 11.3521 6.39834 11.3521C7.7139 11.3521 8.9662 11.7626 10.0187 12.5391C10.2385 12.7014 10.2854 13.0111 10.1231 13.2311C9.96078 13.4506 9.65139 13.4975 9.43137 13.3354C8.55005 12.6853 7.50137 12.3413 6.39834 12.3413C3.59886 12.3413 1.3213 14.5925 1.3213 17.3592V18.9771C1.3213 19.1399 1.45752 19.2725 1.6249 19.2725H7.82984C8.10276 19.2725 8.32447 19.494 8.32447 19.7672C8.32447 20.0401 8.10276 20.2618 7.82959 20.2618Z" fill="#2571EB"/>
<path d="M29.7033 19.8874H23.4986C23.2257 19.8874 23.004 19.6659 23.004 19.3928C23.004 19.1199 23.2257 18.8981 23.4986 18.8981H29.7035C29.8709 18.8981 30.0071 18.7658 30.0071 18.603V16.9851C30.0071 14.2179 27.7296 11.9672 24.9301 11.9672C23.7609 11.9672 22.6195 12.3698 21.7159 13.1011C21.5039 13.2729 21.1926 13.2403 21.0204 13.028C20.8486 12.8157 20.881 12.5041 21.0938 12.3321C22.1727 11.459 23.5351 10.9779 24.9301 10.9779C28.2749 10.9779 30.9962 13.6726 30.9962 16.9851V18.603C30.9962 19.3111 30.4163 19.8874 29.7033 19.8874Z" fill="#2571EB"/>
<path d="M24.9324 10.2579C22.9707 10.2579 21.375 8.6767 21.375 6.73317C21.375 4.78965 22.9707 3.20816 24.9324 3.20816C26.8943 3.20816 28.4902 4.7894 28.4902 6.73317C28.4902 8.67694 26.894 10.2579 24.9324 10.2579ZM24.9324 4.19743C23.5163 4.19743 22.3643 5.335 22.3643 6.73317C22.3643 8.13134 23.5163 9.26867 24.9324 9.26867C26.3489 9.26867 27.501 8.13134 27.501 6.73317C27.501 5.335 26.3487 4.19743 24.9324 4.19743Z" fill="#2571EB"/>
<path d="M22.3801 21.8713H8.95341C8.06147 21.8713 7.33594 21.1511 7.33594 20.2657V17.99C7.33594 13.4422 11.0728 9.74231 15.6667 9.74231C20.2607 9.74231 23.9976 13.4422 23.9976 17.99V20.2657C23.9976 21.1511 23.272 21.8713 22.3801 21.8713ZM15.6667 10.7318C11.6186 10.7318 8.32521 13.988 8.32521 17.9903V20.2659C8.32521 20.6057 8.60707 20.8823 8.95341 20.8823H22.3798C22.7262 20.8823 23.008 20.6057 23.008 20.2659V17.9903C23.0083 13.988 19.7149 10.7318 15.6667 10.7318Z" fill="#2571EB"/>
<path d="M15.4895 9.16434C12.969 9.16434 10.918 7.1329 10.918 4.63556C10.918 2.13847 12.9687 0.107269 15.4895 0.107269C18.0105 0.107269 20.0613 2.13871 20.0613 4.6358C20.0613 7.13314 18.0103 9.16434 15.4895 9.16434ZM15.4895 1.09654C13.5143 1.09654 11.9072 2.68431 11.9072 4.6358C11.9072 6.58754 13.5143 8.17531 15.4895 8.17531C17.4649 8.17531 19.072 6.58754 19.072 4.6358C19.072 2.68431 17.4649 1.09654 15.4895 1.09654Z" fill="#2571EB"/>
</svg>
