<svg width="18" height="18" viewBox="0 0 18 18" fill="none" xmlns="http://www.w3.org/2000/svg">
<path d="M0.627785 8.79066H12.3487C12.5152 8.79066 12.6749 8.7245 12.7927 8.60675C12.9104 8.489 12.9766 8.32929 12.9766 8.16276C12.9766 7.99622 12.9104 7.83652 12.7927 7.71876C12.6749 7.60101 12.5152 7.53485 12.3487 7.53485H0.627785C0.461254 7.53485 0.301543 7.60101 0.183789 7.71876C0.0660343 7.83652 -0.000119209 7.99622 -0.000119209 8.16276C-0.000119209 8.32929 0.0660343 8.489 0.183789 8.60675C0.301543 8.7245 0.461254 8.79066 0.627785 8.79066Z" fill="#EE2424"/>
<path d="M3.97533 12.1395C4.09951 12.1395 4.22091 12.1027 4.3242 12.0338C4.42748 11.9649 4.50801 11.8668 4.55559 11.7521C4.60317 11.6374 4.61568 11.5112 4.59152 11.3894C4.56737 11.2676 4.50764 11.1557 4.41988 11.0678L1.52232 8.16273L4.41988 5.25762C4.5341 5.13904 4.59718 4.98034 4.59552 4.8157C4.59386 4.65106 4.5276 4.49366 4.41101 4.3774C4.29443 4.26115 4.13684 4.19533 3.9722 4.19414C3.80755 4.19295 3.64903 4.25647 3.53077 4.37103L0.190322 7.71985C0.0729403 7.83769 0.00703478 7.99724 0.00703478 8.16356C0.00703478 8.32989 0.0729403 8.48944 0.190322 8.60728L3.53077 11.9561C3.58913 12.0145 3.65846 12.0607 3.73475 12.0922C3.81104 12.1236 3.8928 12.1397 3.97533 12.1395Z" fill="#EE2424"/>
<path d="M8.16089 17.1627H15.6957C16.3062 17.1623 16.8916 16.9196 17.3232 16.4879C17.7549 16.0562 17.9976 15.4709 17.998 14.8604V2.30231C17.9976 1.69184 17.7549 1.10649 17.3232 0.674822C16.8916 0.243151 16.3062 0.000443499 15.6957 0H8.16089C7.55041 0.000443499 6.96507 0.243151 6.53339 0.674822C6.10172 1.10649 5.85901 1.69184 5.85857 2.30231V3.97673C5.85857 4.14326 5.92473 4.30297 6.04248 4.42072C6.16024 4.53848 6.31994 4.60463 6.48647 4.60463C6.65301 4.60463 6.81271 4.53848 6.93047 4.42072C7.04822 4.30297 7.11438 4.14326 7.11438 3.97673V2.30231C7.11482 2.0249 7.22522 1.75897 7.42138 1.56281C7.61755 1.36665 7.88347 1.25625 8.16089 1.25581H15.6957C15.9731 1.25625 16.2391 1.36665 16.4352 1.56281C16.6314 1.75897 16.7418 2.0249 16.7422 2.30231V14.8604C16.7418 15.1378 16.6314 15.4037 16.4352 15.5999C16.2391 15.7961 15.9731 15.9065 15.6957 15.9069H8.16089C7.88347 15.9065 7.61755 15.7961 7.42138 15.5999C7.22522 15.4037 7.11482 15.1378 7.11438 14.8604V12.3488C7.11438 12.1822 7.04822 12.0225 6.93047 11.9048C6.81271 11.787 6.65301 11.7209 6.48647 11.7209C6.31994 11.7209 6.16024 11.787 6.04248 11.9048C5.92473 12.0225 5.85857 12.1822 5.85857 12.3488V14.8604C5.85901 15.4709 6.10172 16.0562 6.53339 16.4879C6.96507 16.9196 7.55041 17.1623 8.16089 17.1627Z" fill="#EE2424"/>
</svg>
