<svg width="19" height="19" viewBox="0 0 19 19" fill="none" xmlns="http://www.w3.org/2000/svg">
<g clip-path="url(#clip0_342_3685)">
<path d="M13.6403 9.53373C13.2752 9.36017 12.9026 9.21066 12.5235 9.08541C13.7512 8.16391 14.5469 6.69657 14.5469 5.04688C14.5469 2.26404 12.2829 0 9.49999 0C6.71712 0 4.45311 2.26404 4.45311 5.04688C4.45311 6.69839 5.25052 8.16718 6.48051 9.08849C5.35357 9.45951 4.29614 10.0368 3.37063 10.7981C1.67354 12.194 0.493578 14.1411 0.0481537 16.2807C-0.0914518 16.9512 0.0758002 17.6398 0.506937 18.1699C0.935958 18.6974 1.57212 19 2.25226 19H11.3926C11.8025 19 12.1348 18.6677 12.1348 18.2578C12.1348 17.8479 11.8025 17.5156 11.3926 17.5156H2.25226C1.93543 17.5156 1.74427 17.3388 1.65855 17.2334C1.51052 17.0513 1.45323 16.8144 1.50136 16.5833C2.27156 12.8836 5.53481 10.1811 9.30323 10.09C9.36851 10.0925 9.43408 10.0938 9.49999 10.0938C9.56652 10.0938 9.63276 10.0925 9.69867 10.0899C10.8535 10.117 11.9642 10.3805 13.003 10.8744C13.3733 11.0503 13.816 10.8929 13.992 10.5227C14.1679 10.1525 14.0105 9.70971 13.6403 9.53373ZM9.681 8.60481C9.62078 8.60373 9.56044 8.60318 9.49999 8.60318C9.44009 8.60318 9.3802 8.60377 9.32038 8.60489C7.43912 8.51103 5.93749 6.95103 5.93749 5.04688C5.93749 3.08249 7.5356 1.48438 9.49999 1.48438C11.4644 1.48438 13.0625 3.08249 13.0625 5.04688C13.0625 6.95055 11.5616 8.51026 9.681 8.60481Z" fill="#434343"/>
<path d="M18.2578 14.7324H16.2168V12.6914C16.2168 12.2815 15.8845 11.9492 15.4746 11.9492C15.0647 11.9492 14.7324 12.2815 14.7324 12.6914V14.7324H12.6914C12.2815 14.7324 11.9492 15.0647 11.9492 15.4746C11.9492 15.8845 12.2815 16.2168 12.6914 16.2168H14.7324V18.2578C14.7324 18.6677 15.0647 19 15.4746 19C15.8845 19 16.2168 18.6677 16.2168 18.2578V16.2168H18.2578C18.6677 16.2168 19 15.8845 19 15.4746C19 15.0647 18.6677 14.7324 18.2578 14.7324Z" fill="#434343"/>
</g>
<defs>
<clipPath id="clip0_342_3685">
<rect width="19" height="19" fill="white"/>
</clipPath>
</defs>
</svg>
