<svg width="17" height="16" viewBox="0 0 17 16" fill="none" xmlns="http://www.w3.org/2000/svg">
<path d="M15.7292 8.58907C15.983 8.28618 16.1377 7.88637 16.1377 7.44893C16.1377 6.50603 15.4198 5.73872 14.5377 5.73872H11.4323C11.7398 4.74109 11.871 3.41739 11.871 2.84998V2.28029C11.871 1.02309 10.9139 0 9.7377 0H9.20436C8.95974 0 8.74641 0.177862 8.68703 0.431734L8.39654 1.67411C7.98943 3.41397 6.69698 5.33359 5.35938 5.68247C5.12507 5.04855 4.54658 4.59858 3.87103 4.59858H0.671029C0.376629 4.59858 0.137695 4.85397 0.137695 5.16865V15.4299C0.137695 15.7446 0.376629 16 0.671029 16H3.87103C4.50712 16 5.05752 15.6013 5.3153 15.0252L7.14783 15.6781C7.74694 15.8917 8.37129 16 9.00312 16H13.471C14.3532 16 15.071 15.2327 15.071 14.2898C15.071 14.0675 15.0312 13.8546 14.9587 13.6597C15.6371 13.4617 16.1377 12.797 16.1377 12.0095C16.1377 11.5721 15.983 11.1723 15.7292 10.8694C15.983 10.5665 16.1377 10.1667 16.1377 9.72922C16.1377 9.29178 15.983 8.89197 15.7292 8.58907ZM4.40436 14.2898C4.40436 14.6041 4.16507 14.8599 3.87103 14.8599H1.20436V5.73872H3.87103C4.16507 5.73872 4.40436 5.99449 4.40436 6.30879V14.2898ZM13.471 9.15915H14.5377C14.8317 9.15915 15.071 9.41492 15.071 9.72922C15.071 10.0435 14.8317 10.2993 14.5377 10.2993H13.471C13.1766 10.2993 12.9377 10.5547 12.9377 10.8694C12.9377 11.184 13.1766 11.4394 13.471 11.4394H14.5377C14.8317 11.4394 15.071 11.6952 15.071 12.0095C15.071 12.3238 14.8317 12.5796 14.5377 12.5796H13.471C13.1766 12.5796 12.9377 12.835 12.9377 13.1496C12.9377 13.4643 13.1766 13.7197 13.471 13.7197C13.7651 13.7197 14.0044 13.9755 14.0044 14.2898C14.0044 14.6041 13.7651 14.8599 13.471 14.8599H9.00312C8.48614 14.8599 7.97521 14.7713 7.4849 14.5965L5.47103 13.879V6.82489C6.30765 6.65501 7.1265 6.08874 7.8657 5.16181C8.58747 4.25653 9.17272 3.05634 9.43121 1.95078L9.62072 1.14014H9.7377C10.3258 1.14014 10.8044 1.65169 10.8044 2.28029V2.84998C10.8044 3.61539 10.5804 5.08352 10.2938 5.73872H9.20436C8.90996 5.73872 8.67103 5.99411 8.67103 6.30879C8.67103 6.62347 8.90996 6.87886 9.20436 6.87886H14.5377C14.8317 6.87886 15.071 7.13463 15.071 7.44893C15.071 7.76323 14.8317 8.019 14.5377 8.019H13.471C13.1766 8.019 12.9377 8.27439 12.9377 8.58907C12.9377 8.90375 13.1766 9.15915 13.471 9.15915Z" fill="black"/>
<path d="M2.80579 13.7197C3.10035 13.7197 3.33913 13.4645 3.33913 13.1496C3.33913 12.8348 3.10035 12.5796 2.80579 12.5796C2.51124 12.5796 2.27246 12.8348 2.27246 13.1496C2.27246 13.4645 2.51124 13.7197 2.80579 13.7197Z" fill="black"/>
</svg>
