<svg width="20" height="20" viewBox="0 0 20 20" fill="white" xmlns="http://www.w3.org/2000/svg">
<g clip-path="url(#clip0_232_212)">
<path d="M19.1227 11.5896L18.2907 10.9047C17.7207 10.4355 17.7218 9.56352 18.2907 9.09527L19.1227 8.41035C19.7148 7.92289 19.8662 7.08703 19.4828 6.42277L17.8399 3.57723C17.4564 2.91301 16.6566 2.62629 15.9386 2.89527L14.9294 3.27336C14.2381 3.53227 13.4834 3.09559 13.3623 2.36863L13.1852 1.30559C13.0591 0.549102 12.4109 0 11.6439 0H8.3582C7.59121 0 6.94301 0.549102 6.81695 1.30562L6.63977 2.36863C6.5184 3.09687 5.76269 3.53184 5.07273 3.2734L4.06355 2.89527C3.34547 2.62629 2.54578 2.91305 2.16223 3.57723L0.519374 6.42273C0.135898 7.08691 0.287304 7.92281 0.879452 8.41031L1.71144 9.09523C2.28144 9.56445 2.28031 10.4364 1.71144 10.9047L0.879413 11.5896C0.287304 12.0771 0.135859 12.913 0.519335 13.5772L2.16223 16.4227C2.54574 17.0869 3.34527 17.3737 4.06355 17.1047L5.07269 16.7266C5.76406 16.4676 6.51859 16.9046 6.63973 17.6313L6.81691 18.6943C6.94301 19.4509 7.59121 20 8.35816 20H11.6439C12.4109 20 13.0591 19.4509 13.1851 18.6944L13.3623 17.6314C13.4836 16.9034 14.2393 16.4681 14.9293 16.7267L15.9386 17.1047C16.6568 17.3738 17.4564 17.087 17.8399 16.4228L19.4828 13.5772C19.8662 12.913 19.7148 12.0771 19.1227 11.5896ZM16.4867 15.6415L15.4775 15.2634C13.8643 14.6591 12.1037 15.6787 11.8211 17.3745L11.6439 18.4375H8.3582L8.18102 17.3745C7.89785 15.6754 6.13469 14.6603 4.52457 15.2634L3.51539 15.6415L1.87254 12.796L2.70453 12.1111C4.03457 11.0161 4.0318 8.9816 2.70453 7.88895L1.87254 7.20402L3.51543 4.35848L4.52457 4.73656C6.13785 5.34086 7.8984 4.32133 8.18102 2.62551L8.35816 1.5625H11.6439L11.8211 2.62551C12.1043 4.3248 13.8675 5.33961 15.4775 4.73656L16.4867 4.35848L18.1299 7.20363C18.1299 7.20363 18.1298 7.20375 18.1295 7.20398L17.2975 7.88891C15.9675 8.98375 15.9702 11.0183 17.2975 12.111L18.1295 12.7959L16.4867 15.6415ZM10.0011 6.14582C7.87586 6.14582 6.14687 7.8748 6.14687 10C6.14687 12.1252 7.87586 13.8542 10.0011 13.8542C12.1262 13.8542 13.8552 12.1252 13.8552 10C13.8552 7.8748 12.1262 6.14582 10.0011 6.14582ZM10.0011 12.2917C8.73742 12.2917 7.70937 11.2636 7.70937 10C7.70937 8.73637 8.73742 7.70832 10.0011 7.70832C11.2647 7.70832 12.2927 8.73637 12.2927 10C12.2927 11.2636 11.2647 12.2917 10.0011 12.2917Z" fill="white"/>
</g>
<defs>
<clipPath id="clip0_232_212">
<rect width="20" height="20" fill="white"/>
</clipPath>
</defs>
</svg>
