<svg width="4" height="16" viewBox="0 0 4 16" fill="none" xmlns="http://www.w3.org/2000/svg">
<path d="M3.69141 8.00002C3.69141 9.01787 2.8631 9.84618 1.84525 9.84618C0.827406 9.84618 -0.000901699 9.01787 -0.000901699 8.00002C-0.000901699 6.98218 0.827406 6.15387 1.84525 6.15387C2.8631 6.15387 3.69141 6.98218 3.69141 8.00002Z" fill="white"/>
<path d="M3.69141 14.1538C3.69141 15.1717 2.8631 16 1.84525 16C0.827406 16 -0.000901699 15.1717 -0.000901699 14.1538C-0.000901699 13.136 0.827406 12.3077 1.84525 12.3077C2.8631 12.3077 3.69141 13.136 3.69141 14.1538Z" fill="white"/>
<path d="M3.69141 1.84615C3.69141 2.864 2.8631 3.69231 1.84525 3.69231C0.827406 3.69231 -0.000901699 2.864 -0.000901699 1.84615C-0.000901699 0.828308 0.827406 0 1.84525 0C2.8631 0 3.69141 0.828308 3.69141 1.84615Z" fill="white"/>
</svg>
