<svg width="19" height="15" viewBox="0 0 19 15" fill="none" xmlns="http://www.w3.org/2000/svg">
<path d="M18.3679 2.32985C17.9886 1.93251 17.4648 1.69772 16.8688 1.69772H13.8707V1.6616C13.8707 1.21008 13.6901 0.776616 13.3831 0.487643C13.076 0.180608 12.6606 0 12.2091 0H6.79087C6.32129 0 5.90589 0.180608 5.59886 0.487643C5.29183 0.794677 5.11122 1.21008 5.11122 1.6616V1.69772H2.13118C1.53517 1.69772 1.01141 1.93251 0.632129 2.32985C0.252852 2.70913 0 3.25095 0 3.8289V12.8232C0 13.4192 0.234791 13.943 0.632129 14.3222C1.01141 14.7015 1.55323 14.9544 2.13118 14.9544H16.8688C17.4648 14.9544 17.9886 14.7196 18.3679 14.3222C18.7471 13.943 19 13.4011 19 12.8232V3.8289C19 3.23289 18.7652 2.70913 18.3679 2.32985ZM18.0608 12.8232H18.0428C18.0428 13.1483 17.9164 13.4373 17.6996 13.654C17.4829 13.8707 17.1939 13.9971 16.8688 13.9971H2.13118C1.80608 13.9971 1.51711 13.8707 1.30038 13.654C1.08365 13.4373 0.957224 13.1483 0.957224 12.8232V3.8289C0.957224 3.5038 1.08365 3.21483 1.30038 2.9981C1.51711 2.78137 1.80608 2.65494 2.13118 2.65494H5.61692C5.88783 2.65494 6.10456 2.43821 6.10456 2.1673V1.64354C6.10456 1.44487 6.17681 1.26426 6.30323 1.13783C6.42966 1.01141 6.61027 0.939163 6.80894 0.939163H12.2091C12.4078 0.939163 12.5884 1.01141 12.7148 1.13783C12.8413 1.26426 12.9135 1.44487 12.9135 1.64354V2.1673C12.9135 2.43821 13.1302 2.65494 13.4011 2.65494H16.8869C17.212 2.65494 17.501 2.78137 17.7177 2.9981C17.9344 3.21483 18.0608 3.5038 18.0608 3.8289V12.8232Z" fill="white"/>
<path d="M9.49961 3.88307C8.27147 3.88307 7.1517 4.38878 6.35702 5.18345C5.54428 5.99619 5.05664 7.0979 5.05664 8.32604C5.05664 9.55417 5.56234 10.6739 6.35702 11.4686C7.16976 12.2814 8.27147 12.769 9.49961 12.769C10.7277 12.769 11.8475 12.2633 12.6422 11.4686C13.4549 10.6559 13.9426 9.55417 13.9426 8.32604C13.9426 7.0979 13.4369 5.97813 12.6422 5.18345C11.8475 4.38878 10.7277 3.88307 9.49961 3.88307ZM11.9559 10.8004C11.3238 11.4144 10.4568 11.8118 9.49961 11.8118C8.54238 11.8118 7.67546 11.4144 7.04333 10.8004C6.4112 10.1682 6.03193 9.30132 6.03193 8.3441C6.03193 7.38687 6.42926 6.51995 7.04333 5.88782C7.67546 5.2557 8.54238 4.87642 9.49961 4.87642C10.4568 4.87642 11.3238 5.27376 11.9559 5.88782C12.588 6.51995 12.9673 7.38687 12.9673 8.3441C12.9853 9.30132 12.588 10.1682 11.9559 10.8004Z" fill="white"/>
<path d="M15.9299 5.63498C16.4187 5.63498 16.8149 5.23876 16.8149 4.75C16.8149 4.26124 16.4187 3.86502 15.9299 3.86502C15.4411 3.86502 15.0449 4.26124 15.0449 4.75C15.0449 5.23876 15.4411 5.63498 15.9299 5.63498Z" fill="white"/>
</svg>
