<svg width="10" height="10" viewBox="0 0 10 10" fill="none" xmlns="http://www.w3.org/2000/svg">
<path d="M9.29962 3.61225L6.57589 3.19854L5.35781 0.618932C5.16105 0.202218 4.83911 0.202218 4.64237 0.618932L3.42432 3.19854L0.700508 3.61225C0.26054 3.67905 0.161047 3.9991 0.479411 4.32344L2.45032 6.33139L1.98504 9.16673C1.9099 9.62474 2.17035 9.82256 2.56386 9.60627L5.00007 8.26761L7.4363 9.60627C7.8298 9.82256 8.09029 9.62472 8.01515 9.16673L7.54979 6.33139L9.52072 4.32344C9.8391 3.9991 9.73959 3.67905 9.29962 3.61225Z" fill="#FFD400"/>
<path d="M9.97312 3.77649C9.89609 3.52866 9.66591 3.35829 9.34168 3.30907L6.77037 2.91851L5.62045 0.483243C5.47545 0.176113 5.2493 0 5 0C4.75069 0 4.52454 0.176133 4.37956 0.483243L3.22967 2.91848L0.658327 3.30905C0.334064 3.35827 0.103924 3.52864 0.0268719 3.77645C-0.0501606 4.02428 0.0402314 4.3035 0.274825 4.54251L2.13546 6.43808L1.69621 9.1148C1.63846 9.46689 1.73655 9.67744 1.82903 9.79206C1.93719 9.92614 2.09499 10 2.27335 10C2.4082 10 2.55181 9.95866 2.70012 9.87715L5 8.61337L7.29987 9.87711C7.44822 9.95862 7.59179 9.99998 7.7267 9.99998C7.90508 9.99998 8.06289 9.92614 8.17106 9.79204C8.26352 9.67742 8.36163 9.46687 8.30385 9.11476L7.86453 6.4381L9.72517 4.54255C9.95978 4.30352 10.0502 4.0243 9.97312 3.77649ZM9.31616 4.10397L7.34523 6.11193C7.27616 6.18227 7.24466 6.28363 7.26097 6.38297L7.72633 9.21828C7.74131 9.30959 7.73371 9.36435 7.72664 9.38754C7.70896 9.38754 7.65869 9.38235 7.57257 9.33503L5.13634 7.9964C5.09365 7.97294 5.04683 7.9612 5.00001 7.9612C4.9532 7.9612 4.90634 7.97292 4.8637 7.9964L2.42744 9.33507C2.34142 9.38233 2.29116 9.38754 2.27347 9.38754C2.26638 9.36435 2.25876 9.30959 2.27376 9.21828L2.73904 6.38294C2.75533 6.28363 2.72383 6.18227 2.65478 6.11193L0.683835 4.10397C0.62026 4.03922 0.59565 3.99023 0.588384 3.96718C0.607232 3.95299 0.654714 3.92847 0.742586 3.9151L3.46638 3.50139C3.56181 3.48692 3.64427 3.42426 3.68697 3.33389L4.90503 0.754261C4.94429 0.671094 4.98125 0.63145 5 0.617098C5.01875 0.63145 5.05574 0.671094 5.095 0.754281L6.31308 3.33389C6.35578 3.42426 6.43824 3.48692 6.53367 3.50139L9.25742 3.9151C9.34528 3.92845 9.39276 3.95297 9.41161 3.96718C9.40434 3.99021 9.37971 4.03922 9.31616 4.10397Z" fill="black"/>
</svg>
