<svg width="18" height="18" viewBox="0 0 18 18" fill="none" xmlns="http://www.w3.org/2000/svg">
<path d="M12.375 0H2.25C1.00912 0 0 1.00912 0 2.25V9C0 10.2409 1.00912 11.25 2.25 11.25V14.0625C2.25 14.2819 2.37825 14.4821 2.57737 14.5733C2.65275 14.6081 2.73263 14.625 2.8125 14.625C2.94412 14.625 3.07463 14.5789 3.17813 14.4889L6.95813 11.25H12.375C13.6159 11.25 14.625 10.2409 14.625 9V2.25C14.625 1.00912 13.6159 0 12.375 0ZM13.5 9C13.5 9.61987 12.9949 10.125 12.375 10.125H6.75C6.61613 10.125 6.48563 10.1723 6.38438 10.2611L3.375 12.8396V10.6875C3.375 10.377 3.123 10.125 2.8125 10.125H2.25C1.63013 10.125 1.125 9.61987 1.125 9V2.25C1.125 1.63013 1.63013 1.125 2.25 1.125H12.375C12.9949 1.125 13.5 1.63013 13.5 2.25V9Z" fill="#22303B"/>
</svg>
