<svg width="18" height="14" viewBox="0 0 18 14" fill="none" xmlns="http://www.w3.org/2000/svg">
<path d="M17.884 6.65898C16.4566 4.78164 14.9977 3.35078 13.5492 2.40156C12.0656 1.43125 10.5539 0.935545 9.04922 0.93203C9.04219 0.93203 9.03516 0.93203 9.02812 0.93203C7.51992 0.93203 5.99414 1.42422 4.5 2.39805C3.04102 3.34375 1.56445 4.77812 0.116016 6.65547C-0.0386719 6.85937 -0.0386719 7.14062 0.116016 7.34101C1.56445 9.22187 3.04102 10.6562 4.5 11.602C5.99766 12.5758 7.51992 13.068 9.02812 13.068H9.04922C10.5539 13.0645 12.0691 12.5687 13.5492 11.5984C14.9977 10.6492 16.4531 9.21836 17.884 7.34101C18.0387 7.14062 18.0387 6.85937 17.884 6.65898ZM9.0457 11.943C9.03867 11.943 9.03164 11.943 9.02812 11.943C6.50039 11.943 3.8918 10.2801 1.27617 7C3.8918 3.71992 6.49687 2.05703 9.02812 2.05703H9.0457C11.5664 2.06406 14.1504 3.72695 16.7238 7C14.1504 10.273 11.5699 11.9359 9.0457 11.943ZM9 3.48437C7.06289 3.48437 5.48438 5.06289 5.48438 7C5.48438 8.93711 7.06289 10.5156 9 10.5156C10.9371 10.5156 12.5156 8.93711 12.5156 7C12.5156 5.06289 10.9371 3.48437 9 3.48437ZM9 9.39062C7.68164 9.39062 6.60938 8.31836 6.60938 7C6.60938 5.68164 7.68164 4.60937 9 4.60937C10.3184 4.60937 11.3906 5.68164 11.3906 7C11.3906 8.31836 10.3184 9.39062 9 9.39062Z" fill="#22303B"/>
</svg>
