<svg width="11" height="11" viewBox="0 0 11 11" fill="none" xmlns="http://www.w3.org/2000/svg">
<g clip-path="url(#clip0_8_2011)">
<path fill-rule="evenodd" clip-rule="evenodd" d="M8.24785 6.46249C8.78794 5.92238 8.8704 5.18353 8.246 4.5358L3.99787 0.287605C3.81242 0.10538 3.56249 0.00378113 3.3025 0.00492285C3.0425 0.00606456 2.79348 0.109854 2.60963 0.293701C2.42578 0.477548 2.32199 0.72657 2.32085 0.986566C2.31971 1.24656 2.42131 1.49649 2.60353 1.68194L6.42144 5.49999L2.60347 9.31798C2.51059 9.40924 2.43671 9.51799 2.38609 9.63796C2.33547 9.75793 2.30911 9.88673 2.30854 10.0169C2.30797 10.1472 2.33319 10.2762 2.38276 10.3966C2.43232 10.517 2.50525 10.6264 2.59732 10.7185C2.68939 10.8105 2.79879 10.8835 2.9192 10.933C3.0396 10.9826 3.16864 11.0078 3.29884 11.0072C3.42905 11.0067 3.55786 10.9803 3.67783 10.9297C3.79779 10.8791 3.90655 10.8052 3.99781 10.7123L8.24785 6.46249Z" fill="#20313D"/>
</g>
<defs>
<clipPath id="clip0_8_2011">
<rect width="11" height="11" fill="white"/>
</clipPath>
</defs>
</svg>
