<svg width="20" height="20" viewBox="0 0 20 20" fill="none" xmlns="http://www.w3.org/2000/svg">
<path d="M19.7085 18.3051L14.3153 12.9017C15.5657 11.2916 16.1556 9.26546 15.9646 7.23578C15.7737 5.20609 14.8164 3.32548 13.2876 1.97683C11.7588 0.62819 9.77343 -0.0870851 7.73579 -0.0233591C5.69814 0.040367 3.76138 0.878303 2.31984 2.31984C0.878299 3.76138 0.0403632 5.69814 -0.0233629 7.73579C-0.0870889 9.77344 0.628186 11.7588 1.97683 13.2876C3.32547 14.8164 5.20609 15.7737 7.23577 15.9646C9.26546 16.1556 11.2916 15.5657 12.9017 14.3153L18.3051 19.7085C18.5003 19.8322 18.7317 19.8858 18.9614 19.8603C19.1911 19.8349 19.4053 19.7321 19.5687 19.5687C19.732 19.4053 19.8349 19.1911 19.8603 18.9614C19.8858 18.7317 19.8322 18.5003 19.7085 18.3051ZM2 8C2 6.81331 2.35189 5.65327 3.01118 4.66658C3.67047 3.67988 4.60754 2.91085 5.7039 2.45672C6.80025 2.0026 8.00665 1.88378 9.17054 2.11529C10.3344 2.3468 11.4035 2.91825 12.2426 3.75736C13.0818 4.59648 13.6532 5.66557 13.8847 6.82946C14.1162 7.99335 13.9974 9.19975 13.5433 10.2961C13.0891 11.3925 12.3201 12.3295 11.3334 12.9888C10.3467 13.6481 9.18669 14 8 14C6.40925 13.9982 4.88417 13.3655 3.75934 12.2407C2.63451 11.1158 2.00179 9.59075 2 8Z" fill="#20303D"/>
</svg>
