<svg width="13" height="10" viewBox="0 0 13 10" fill="none" xmlns="http://www.w3.org/2000/svg">
<path d="M8.14101 5.82875C8.14101 6.92096 7.25251 7.80947 6.16029 7.80947C5.06808 7.80947 4.17992 6.92096 4.17992 5.82875C4.17992 4.73654 5.06808 3.84803 6.16029 3.84803C7.25251 3.84803 8.14101 4.73688 8.14101 5.82875ZM12.3011 3.01623V8.64195C12.3011 9.39193 11.693 10 10.943 10H1.37758C0.627598 10 0.0195312 9.39193 0.0195312 8.64195V3.01623C0.0195312 2.26625 0.627598 1.65818 1.37758 1.65818H3.04798V1.18829C3.04798 0.532016 3.57966 0 4.23628 0H8.08431C8.74093 0 9.2726 0.532016 9.2726 1.18829V1.65784H10.943C11.693 1.65818 12.3011 2.26625 12.3011 3.01623ZM9.15955 5.82875C9.15955 4.17498 7.81406 2.8295 6.16029 2.8295C4.50687 2.8295 3.16138 4.17498 3.16138 5.82875C3.16138 7.48251 4.50687 8.828 6.16029 8.828C7.81406 8.828 9.15955 7.48251 9.15955 5.82875Z" fill="white"/>
</svg>
