<svg width="9" height="10" viewBox="0 0 9 10" fill="none" xmlns="http://www.w3.org/2000/svg">
<path d="M4.1078 4.81701C4.76957 4.81701 5.34261 4.57966 5.81082 4.11137C6.27903 3.64316 6.51638 3.07027 6.51638 2.40843C6.51638 1.74681 6.27903 1.17385 5.81074 0.705485C5.34245 0.237349 4.76949 0 4.1078 0C3.44595 0 2.87307 0.237349 2.40486 0.705561C1.93664 1.17377 1.69922 1.74674 1.69922 2.40843C1.69922 3.07027 1.93664 3.64324 2.40493 4.11145C2.87322 4.57958 3.44618 4.81701 4.1078 4.81701Z" fill="white"/>
<path d="M8.32276 7.68945C8.30926 7.49459 8.28195 7.28204 8.24174 7.05758C8.20115 6.83145 8.14889 6.61768 8.08633 6.42229C8.02171 6.22034 7.93382 6.02091 7.82518 5.8298C7.71242 5.63143 7.57997 5.4587 7.43135 5.31657C7.27594 5.16787 7.08567 5.04832 6.86564 4.96112C6.64637 4.87437 6.40338 4.83043 6.14345 4.83043C6.04136 4.83043 5.94264 4.87231 5.75198 4.99644C5.63464 5.07297 5.49739 5.16147 5.3442 5.25935C5.2132 5.34282 5.03574 5.42102 4.81655 5.49182C4.6027 5.56101 4.38557 5.59611 4.17126 5.59611C3.95695 5.59611 3.7399 5.56101 3.52582 5.49182C3.30686 5.42109 3.1294 5.34289 2.99856 5.25943C2.84681 5.16246 2.70948 5.07396 2.59039 4.99637C2.39996 4.87224 2.30116 4.83035 2.19908 4.83035C1.93907 4.83035 1.69615 4.87437 1.47696 4.9612C1.25709 5.04825 1.06673 5.1678 0.911171 5.31665C0.762628 5.45886 0.630107 5.63151 0.517498 5.8298C0.408932 6.02091 0.321042 6.22026 0.256346 6.42237C0.193861 6.61775 0.1416 6.83145 0.101012 7.05758C0.0608058 7.28173 0.0334928 7.49436 0.0199889 7.68967C0.00671381 7.88102 0 8.07961 0 8.28018C0 8.80218 0.165938 9.22477 0.49316 9.53643C0.816339 9.84397 1.24396 9.99999 1.76398 9.99999H6.579C7.09902 9.99999 7.52649 9.84405 7.84975 9.53643C8.17704 9.225 8.34298 8.80234 8.34298 8.28011C8.34291 8.07862 8.33612 7.87987 8.32276 7.68945Z" fill="white"/>
</svg>
