<svg width="10" height="11" viewBox="0 0 10 11" fill="none" xmlns="http://www.w3.org/2000/svg">
<path d="M9.8526 5.83978L6.04459 9.89843C5.37812 10.6088 4.48868 11 3.54016 11C2.59168 11 1.70215 10.6088 1.03539 9.89852C-0.345087 8.42647 -0.345127 6.03146 1.03525 4.55956L3.77173 1.64347L4.57379 0.788133C5.051 0.279855 5.68625 0 6.36262 0C7.03891 0 7.67408 0.279813 8.15109 0.787897C9.1368 1.83919 9.13688 3.54956 8.15133 4.60069L4.61265 8.37229C4.32835 8.6753 3.94747 8.8422 3.5402 8.8422C3.13294 8.8422 2.75206 8.6753 2.46776 8.37229C2.18339 8.06923 2.02677 7.6633 2.02666 7.22932C2.02654 6.7951 2.18321 6.38894 2.46776 6.08566L6.2758 2.02699C6.37103 1.92549 6.49762 1.86961 6.63227 1.86961C6.76692 1.86961 6.89351 1.92549 6.98874 2.02699C7.1853 2.23648 7.1853 2.57735 6.98874 2.78687L3.18073 6.8455C2.98573 7.05334 2.98573 7.40453 3.18073 7.61239C3.2743 7.71212 3.40196 7.76703 3.54022 7.76703C3.67849 7.76703 3.80614 7.71212 3.89974 7.61239L7.43828 3.84093C8.03101 3.20878 8.03097 2.18002 7.43815 1.54776C7.15147 1.24244 6.76946 1.07422 6.3626 1.07422C5.95566 1.07422 5.57357 1.24248 5.28671 1.54801L4.93062 1.92777C4.92842 1.93033 4.92619 1.93284 4.92387 1.93531L4.50614 2.38043L1.74825 5.31938C0.760803 6.37231 0.760824 8.08564 1.74837 9.13864C2.22617 9.64764 2.86252 9.92799 3.54016 9.92799C4.2178 9.92799 4.85402 9.64762 5.33166 9.13855L9.13964 5.07992C9.23487 4.97842 9.36146 4.92254 9.49611 4.92254C9.63076 4.92254 9.75735 4.97842 9.85258 5.07992C10.0491 5.28941 10.0491 5.63028 9.8526 5.83978Z" fill="white"/>
</svg>
