<svg width="17" height="17" viewBox="0 0 17 17" fill="none" xmlns="http://www.w3.org/2000/svg">
<path d="M16.8704 4.86869L12.0874 0.128469C11.9147 -0.042823 11.6344 -0.042823 11.4617 0.128469L11.4415 0.148554C11.1482 0.439128 10.9866 0.825654 10.9866 1.23665C10.9866 1.50144 11.0544 1.75553 11.1806 1.98084L6.17599 6.23754C5.79297 5.89829 5.3041 5.71261 4.7863 5.71261C4.22832 5.71261 3.70379 5.92793 3.30935 6.31893L3.27935 6.34866C3.10651 6.51987 3.10651 6.79755 3.27935 6.96875L6.14475 9.80854L3.35404 12.5742C3.2982 12.6311 1.97728 13.9802 1.10884 15.0537C0.281829 16.0757 0.118284 16.263 0.109788 16.2726C-0.0437559 16.446 -0.0352601 16.7073 0.129081 16.871C0.21519 16.9567 0.328733 17 0.44263 17C0.546439 17 0.650512 16.964 0.734232 16.8915C0.741577 16.8852 0.926184 16.7262 1.96418 15.9014C3.04722 15.0407 4.40841 13.7315 4.47027 13.6718L7.25646 10.9105L9.9684 13.5982C10.0548 13.6839 10.1681 13.7267 10.2812 13.7267C10.3944 13.7267 10.5078 13.6839 10.5941 13.5982L10.6241 13.5685C11.0186 13.1775 11.2359 12.6576 11.2359 12.1047C11.2359 11.5915 11.0484 11.107 10.7062 10.7274L15.0013 5.7676C15.2286 5.89259 15.485 5.95986 15.7522 5.95986C16.167 5.95986 16.5569 5.79979 16.8501 5.50904L16.8704 5.48896C17.0432 5.31758 17.0432 5.0399 16.8704 4.86869Z" fill="#FD3D30"/>
</svg>
