<svg width="22" height="22" viewBox="0 0 22 22" fill="none" xmlns="http://www.w3.org/2000/svg">
<path d="M11 0C4.93423 0 0 4.93423 0 11C0 17.0658 4.93423 22 11 22C17.0658 22 22 17.0649 22 11C22 4.93509 17.0658 0 11 0ZM11 20.2959C5.8749 20.2959 1.7041 16.126 1.7041 11C1.7041 5.87404 5.8749 1.7041 11 1.7041C16.1251 1.7041 20.2959 5.87404 20.2959 11C20.2959 16.126 16.126 20.2959 11 20.2959Z" fill="#00214B"/>
<path d="M15.2598 10.0712H11.8516V6.66304C11.8516 6.19271 11.4707 5.81097 10.9995 5.81097C10.5283 5.81097 10.1475 6.19271 10.1475 6.66304V10.0712H6.73928C6.26808 10.0712 5.88721 10.453 5.88721 10.9233C5.88721 11.3936 6.26808 11.7754 6.73928 11.7754H10.1475V15.1836C10.1475 15.6539 10.5283 16.0356 10.9995 16.0356C11.4707 16.0356 11.8516 15.6539 11.8516 15.1836V11.7754H15.2598C15.731 11.7754 16.1119 11.3936 16.1119 10.9233C16.1119 10.453 15.731 10.0712 15.2598 10.0712Z" fill="#00214B"/>
</svg>
