<svg width="16" height="16" viewBox="0 0 22 20" fill="none" xmlns="http://www.w3.org/2000/svg">
<path d="M5.69025 20C5.46262 20.0004 5.23715 19.9556 5.02675 19.8682C4.81635 19.7808 4.62515 19.6525 4.4641 19.4906C4.30305 19.3288 4.17532 19.1365 4.08821 18.9249C4.0011 18.7133 3.95633 18.4865 3.95646 18.2575V17.674C3.95594 17.3444 3.82571 17.0284 3.59427 16.7952C3.36282 16.5619 3.049 16.4304 2.72143 16.4294C1.9999 16.4286 1.30815 16.1398 0.797955 15.6265C0.287759 15.1131 0.000785834 14.4171 0 13.6911V2.73823C0.000785834 2.01225 0.287759 1.31623 0.797955 0.802881C1.30815 0.289535 1.9999 0.000790685 2.72143 0H18.5552C19.2767 0.000790685 19.9684 0.289535 20.4786 0.802881C20.9888 1.31623 21.2758 2.01225 21.2766 2.73823V13.6911C21.2758 14.4171 20.9888 15.1131 20.4786 15.6265C19.9684 16.1398 19.2767 16.4286 18.5552 16.4294H10.4681C10.1402 16.4302 9.82579 16.5611 9.59327 16.7938L6.9144 19.4892C6.7539 19.6513 6.56312 19.7799 6.35303 19.8676C6.14294 19.9553 5.91769 20.0003 5.69025 20ZM2.72143 1.49358C2.39351 1.4941 2.07918 1.62541 1.8473 1.85871C1.61543 2.09201 1.48494 2.40829 1.48441 2.73823V13.6911C1.48494 14.0211 1.61543 14.3373 1.8473 14.5706C2.07918 14.8039 2.39351 14.9352 2.72143 14.9358C3.44295 14.9366 4.1347 15.2253 4.6449 15.7387C5.15509 16.252 5.44206 16.948 5.44285 17.674V18.2575C5.44276 18.3068 5.45722 18.355 5.4844 18.396C5.51158 18.437 5.55025 18.469 5.59552 18.4879C5.64078 18.5068 5.69059 18.5117 5.73864 18.5021C5.78669 18.4924 5.83081 18.4686 5.86541 18.4337L8.54428 15.7383C8.7962 15.4831 9.09597 15.2807 9.42621 15.143C9.75645 15.0052 10.1106 14.9348 10.4681 14.9358H18.5552C18.8831 14.9352 19.1974 14.8039 19.4293 14.5706C19.6612 14.3373 19.7917 14.0211 19.7922 13.6911V2.73823C19.7917 2.40829 19.6612 2.09201 19.4293 1.85871C19.1974 1.62541 18.8831 1.4941 18.5552 1.49358H2.72143Z" fill="black"/>
</svg>
