<svg width="17" height="10" viewBox="0 0 17 10" fill="none" xmlns="http://www.w3.org/2000/svg">
<path d="M8.38798 10C5.18275 10 2.27609 8.24639 0.131263 5.39806C-0.0437544 5.16471 -0.0437544 4.83869 0.131263 4.60534C2.27609 1.75358 5.18275 -3.05176e-05 8.38798 -3.05176e-05C11.5932 -3.05176e-05 14.4999 1.75358 16.6447 4.60191C16.8197 4.83526 16.8197 5.16127 16.6447 5.39463C14.4999 8.24639 11.5932 10 8.38798 10ZM8.61791 1.47904C6.49024 1.3452 4.7332 3.09881 4.86704 5.22991C4.97685 6.98695 6.40102 8.41111 8.15806 8.52093C10.2857 8.65477 12.0428 6.90116 11.9089 4.77006C11.7957 3.01645 10.3715 1.59229 8.61791 1.47904ZM8.51152 3.10568C7.36533 3.03361 6.41817 3.97733 6.49367 5.12353C6.55201 6.07068 7.32072 6.83595 8.26787 6.89773C9.41406 6.96979 10.3612 6.02607 10.2857 4.87987C10.224 3.92929 9.45525 3.16401 8.51152 3.10568Z" fill="#676767"/>
</svg>
