<svg width="19" height="15" viewBox="0 0 19 15" fill="none" xmlns="http://www.w3.org/2000/svg">
<path d="M17.9444 2.14286H1.05556C0.775605 2.14286 0.50712 2.02997 0.309165 1.82904C0.11121 1.62811 0 1.35559 0 1.07143C0 0.787268 0.11121 0.514746 0.309165 0.313814C0.50712 0.112883 0.775605 0 1.05556 0H17.9444C18.2244 0 18.4929 0.112883 18.6908 0.313814C18.8888 0.514746 19 0.787268 19 1.07143C19 1.35559 18.8888 1.62811 18.6908 1.82904C18.4929 2.02997 18.2244 2.14286 17.9444 2.14286ZM15.8333 7.5C15.8333 7.21584 15.7221 6.94332 15.5242 6.74239C15.3262 6.54145 15.0577 6.42857 14.7778 6.42857H4.22222C3.94227 6.42857 3.67379 6.54145 3.47583 6.74239C3.27788 6.94332 3.16667 7.21584 3.16667 7.5C3.16667 7.78416 3.27788 8.05668 3.47583 8.25761C3.67379 8.45855 3.94227 8.57143 4.22222 8.57143H14.7778C15.0577 8.57143 15.3262 8.45855 15.5242 8.25761C15.7221 8.05668 15.8333 7.78416 15.8333 7.5ZM12.6667 13.9286C12.6667 13.6444 12.5555 13.3719 12.3575 13.171C12.1595 12.97 11.8911 12.8571 11.6111 12.8571H7.38889C7.10894 12.8571 6.84045 12.97 6.6425 13.171C6.44454 13.3719 6.33333 13.6444 6.33333 13.9286C6.33333 14.2127 6.44454 14.4853 6.6425 14.6862C6.84045 14.8871 7.10894 15 7.38889 15H11.6111C11.8911 15 12.1595 14.8871 12.3575 14.6862C12.5555 14.4853 12.6667 14.2127 12.6667 13.9286Z" fill="black"/>
</svg>
