<svg width="18" height="16" viewBox="0 0 18 16" fill="none" xmlns="http://www.w3.org/2000/svg">
<path d="M3.02222 5.15555H1.24444C0.558222 5.15555 0 5.71377 0 6.39999V14.5778C0 15.264 0.558222 15.8222 1.24444 15.8222H3.02222C3.70844 15.8222 4.26667 15.264 4.26667 14.5778V6.39999C4.26667 5.71377 3.70844 5.15555 3.02222 5.15555Z" fill="#2196F3"/>
<path d="M14.2231 5.68889H10.8667C10.8667 5.68889 11.4 4.62222 11.4 2.84444C11.4 0.711111 9.79999 0 9.08887 0C8.37776 0 8.02221 0.355556 8.02221 2.13333C8.02221 3.82293 6.38594 5.18258 5.3335 5.88302V14.6923C6.47198 15.2192 8.7511 16 12.2889 16H13.4267C14.8133 16 15.9938 15.0044 16.2284 13.6391L17.0249 9.01689C17.3235 7.27467 15.9867 5.68889 14.2231 5.68889Z" fill="#FFC107"/>
</svg>
