<svg width="4" height="16" viewBox="0 0 4 16" fill="none" xmlns="http://www.w3.org/2000/svg">
<path d="M3.69238 7.99999C3.69238 9.01784 2.86408 9.84615 1.84623 9.84615C0.828383 9.84615 7.48634e-05 9.01784 7.48634e-05 7.99999C7.48634e-05 6.98215 0.828383 6.15384 1.84623 6.15384C2.86408 6.15384 3.69238 6.98215 3.69238 7.99999Z" fill="#161616"/>
<path d="M3.69238 14.1538C3.69238 15.1717 2.86408 16 1.84623 16C0.828383 16 7.48634e-05 15.1717 7.48634e-05 14.1538C7.48634e-05 13.136 0.828383 12.3077 1.84623 12.3077C2.86408 12.3077 3.69238 13.136 3.69238 14.1538Z" fill="#161616"/>
<path d="M3.69238 1.84615C3.69238 2.864 2.86408 3.69231 1.84623 3.69231C0.828383 3.69231 7.48634e-05 2.864 7.48634e-05 1.84615C7.48634e-05 0.828308 0.828383 0 1.84623 0C2.86408 0 3.69238 0.828308 3.69238 1.84615Z" fill="#161616"/>
</svg>
