<svg width="20" height="20" viewBox="0 0 20 20" fill="none" xmlns="http://www.w3.org/2000/svg">
<path d="M16.1397 1.53492H14.8606V0.76746C14.8606 0.563917 14.7797 0.36871 14.6358 0.224784C14.4919 0.0808571 14.2967 0 14.0931 0C13.8896 0 13.6944 0.0808571 13.5504 0.224784C13.4065 0.36871 13.3257 0.563917 13.3257 0.76746V1.53492H6.67434V0.76746C6.67434 0.563917 6.59348 0.36871 6.44956 0.224784C6.30563 0.0808571 6.11042 0 5.90688 0C5.70334 0 5.50813 0.0808571 5.3642 0.224784C5.22028 0.36871 5.13942 0.563917 5.13942 0.76746V1.53492H3.86032C3.34187 1.47483 2.81653 1.53275 2.32362 1.70434C1.83071 1.87594 1.38298 2.15677 1.01393 2.52582C0.644868 2.89488 0.364038 3.34261 0.192443 3.83552C0.0208482 4.32843 -0.03707 4.85377 0.0230211 5.37222V16.1167C-0.03707 16.6351 0.0208482 17.1604 0.192443 17.6534C0.364038 18.1463 0.644868 18.594 1.01393 18.9631C1.38298 19.3321 1.83071 19.6129 2.32362 19.7845C2.81653 19.9561 3.34187 20.014 3.86032 19.954H16.1397C16.6581 20.014 17.1835 19.9561 17.6764 19.7845C18.1693 19.6129 18.617 19.3321 18.9861 18.9631C19.3551 18.594 19.636 18.1463 19.8076 17.6534C19.9792 17.1604 20.0371 16.6351 19.977 16.1167V5.37222C20.0371 4.85377 19.9792 4.32843 19.8076 3.83552C19.636 3.34261 19.3551 2.89488 18.9861 2.52582C18.617 2.15677 18.1693 1.87594 17.6764 1.70434C17.1835 1.53275 16.6581 1.47483 16.1397 1.53492ZM3.86032 3.06984H5.13942V3.8373C5.13942 4.04084 5.22028 4.23605 5.3642 4.37998C5.50813 4.5239 5.70334 4.60476 5.90688 4.60476C6.11042 4.60476 6.30563 4.5239 6.44956 4.37998C6.59348 4.23605 6.67434 4.04084 6.67434 3.8373V3.06984H13.3257V3.8373C13.3257 4.04084 13.4065 4.23605 13.5504 4.37998C13.6944 4.5239 13.8896 4.60476 14.0931 4.60476C14.2967 4.60476 14.4919 4.5239 14.6358 4.37998C14.7797 4.23605 14.8606 4.04084 14.8606 3.8373V3.06984H16.1397C17.7534 3.06984 18.4421 3.75851 18.4421 5.37222V6.13968H1.55794V5.37222C1.55794 3.75851 2.24661 3.06984 3.86032 3.06984ZM16.1397 18.419H3.86032C2.24661 18.419 1.55794 17.7304 1.55794 16.1167V7.6746H18.4421V16.1167C18.4421 17.7304 17.7534 18.419 16.1397 18.419ZM13.1005 10.7956C13.1719 10.8669 13.2284 10.9515 13.267 11.0446C13.3056 11.1378 13.3255 11.2376 13.3255 11.3385C13.3255 11.4393 13.3056 11.5391 13.267 11.6323C13.2284 11.7254 13.1719 11.81 13.1005 11.8813L9.69302 15.298C9.6219 15.3694 9.53738 15.4261 9.44431 15.4648C9.35124 15.5034 9.25146 15.5233 9.15068 15.5233C9.0499 15.5233 8.95011 15.5034 8.85704 15.4648C8.76397 15.4261 8.67946 15.3694 8.60834 15.298L6.89946 13.5892C6.7639 13.4437 6.69009 13.2512 6.6936 13.0524C6.69711 12.8536 6.77766 12.6639 6.91827 12.5233C7.05888 12.3827 7.24858 12.3021 7.44741 12.2986C7.64623 12.2951 7.83865 12.3689 7.98414 12.5045L9.14761 13.6669L12.0128 10.8017C12.0836 10.7296 12.168 10.6722 12.2612 10.6328C12.3543 10.5934 12.4543 10.5728 12.5554 10.5723C12.6565 10.5717 12.7567 10.5911 12.8503 10.6295C12.9438 10.6678 13.0289 10.7243 13.1005 10.7956Z" fill="black"/>
</svg>
