<svg width="22" height="17" viewBox="0 0 22 17" fill="none" xmlns="http://www.w3.org/2000/svg">
<path d="M10.9014 7.2442C11.6178 7.2442 12.3181 7.03175 12.9138 6.63372C13.5095 6.23568 13.9737 5.66995 14.2479 5.00805C14.522 4.34616 14.5937 3.61784 14.4538 2.9152C14.314 2.21256 13.969 1.56716 13.4624 1.06063C12.9557 0.554101 12.3103 0.209187 11.6076 0.06951C10.9049 -0.0701668 10.1766 0.00166727 9.51477 0.275928C8.85293 0.550189 8.28729 1.01456 7.88938 1.6103C7.49146 2.20605 7.27915 2.90642 7.2793 3.62284C7.28046 4.58305 7.66247 5.5036 8.34152 6.1825C9.02056 6.86141 9.94118 7.24323 10.9014 7.2442ZM10.9014 1.46688C11.3278 1.46688 11.7446 1.59332 12.0992 1.83022C12.4537 2.06712 12.7301 2.40384 12.8932 2.79779C13.0564 3.19174 13.0991 3.62523 13.0159 4.04344C12.9327 4.46166 12.7274 4.84581 12.4259 5.14733C12.1244 5.44885 11.7402 5.65418 11.322 5.73737C10.9038 5.82056 10.4703 5.77786 10.0763 5.61468C9.6824 5.4515 9.34568 5.17517 9.10878 4.82062C8.87188 4.46608 8.74544 4.04924 8.74544 3.62284C8.74621 3.05128 8.97361 2.50335 9.37776 2.0992C9.78191 1.69505 10.3298 1.46765 10.9014 1.46688Z" fill="black"/>
<path d="M4.05911 9.37309C4.61006 9.37309 5.14864 9.20971 5.60674 8.90362C6.06484 8.59752 6.42189 8.16246 6.63273 7.65345C6.84357 7.14443 6.89873 6.58433 6.79125 6.04396C6.68376 5.5036 6.41845 5.00724 6.02887 4.61766C5.63929 4.22807 5.14293 3.96276 4.60256 3.85528C4.0622 3.74779 3.50209 3.80296 2.99308 4.0138C2.48406 4.22464 2.049 4.58168 1.74291 5.03978C1.43681 5.49789 1.27344 6.03647 1.27344 6.58742C1.27344 7.32622 1.56693 8.03477 2.08934 8.55718C2.61175 9.0796 3.3203 9.37309 4.05911 9.37309ZM4.05911 5.26789C4.32008 5.26789 4.5752 5.34528 4.79219 5.49027C5.00919 5.63526 5.17832 5.84135 5.27819 6.08246C5.37806 6.32357 5.40419 6.58888 5.35328 6.84485C5.30236 7.10081 5.17669 7.33593 4.99215 7.52047C4.80761 7.705 4.57249 7.83068 4.31653 7.88159C4.06057 7.93251 3.79526 7.90638 3.55414 7.8065C3.31303 7.70663 3.10695 7.5375 2.96196 7.32051C2.81697 7.10351 2.73958 6.8484 2.73958 6.58742C2.73958 6.23746 2.8786 5.90183 3.12606 5.65437C3.37352 5.40691 3.70914 5.26789 4.05911 5.26789Z" fill="black"/>
<path d="M17.7447 9.37309C18.2956 9.37309 18.8342 9.20971 19.2923 8.90362C19.7504 8.59752 20.1074 8.16246 20.3183 7.65345C20.5291 7.14443 20.5843 6.58433 20.4768 6.04396C20.3693 5.5036 20.104 5.00724 19.7144 4.61766C19.3248 4.22807 18.8285 3.96276 18.2881 3.85528C17.7477 3.74779 17.1876 3.80296 16.6786 4.0138C16.1696 4.22464 15.7345 4.58168 15.4285 5.03978C15.1224 5.49789 14.959 6.03647 14.959 6.58742C14.959 7.32622 15.2525 8.03477 15.7749 8.55718C16.2973 9.0796 17.0058 9.37309 17.7447 9.37309ZM17.7447 5.26789C18.0056 5.26789 18.2607 5.34528 18.4777 5.49027C18.6947 5.63526 18.8639 5.84135 18.9637 6.08246C19.0636 6.32357 19.0897 6.58888 19.0388 6.84485C18.9879 7.10081 18.8622 7.33593 18.6777 7.52047C18.4932 7.705 18.258 7.83068 18.0021 7.88159C17.7461 7.93251 17.4808 7.90638 17.2397 7.8065C16.9986 7.70663 16.7925 7.5375 16.6475 7.32051C16.5025 7.10351 16.4251 6.8484 16.4251 6.58742C16.4251 6.23746 16.5641 5.90183 16.8116 5.65437C17.0591 5.40691 17.3947 5.26789 17.7447 5.26789Z" fill="black"/>
<path d="M17.8417 10.8435C17.1991 10.8478 16.5677 11.0123 16.0047 11.3222C15.4694 10.4749 14.7317 9.77405 13.858 9.283C12.9843 8.79195 12.0021 8.5261 11 8.50942C9.9979 8.5261 9.01571 8.79195 8.142 9.283C7.2683 9.77405 6.53056 10.4749 5.99533 11.3222C5.43233 11.0123 4.8009 10.8478 4.15825 10.8435C3.00506 10.8998 1.92096 11.41 1.14262 12.2628C0.364288 13.1156 -0.0450601 14.2416 0.00394302 15.3952C0.00394302 15.5896 0.081177 15.776 0.218654 15.9135C0.356132 16.051 0.542591 16.1282 0.737013 16.1282C0.931436 16.1282 1.1179 16.051 1.25537 15.9135C1.39285 15.776 1.47008 15.5896 1.47008 15.3952C1.42204 14.6306 1.6773 13.8779 2.18051 13.3003C2.68373 12.7228 3.39433 12.3668 4.15825 12.3097C4.56336 12.3128 4.96108 12.4184 5.31431 12.6168C4.96882 13.4875 4.79194 14.4159 4.79309 15.3526C4.79309 15.5471 4.87033 15.7335 5.0078 15.871C5.14528 16.0085 5.33174 16.0857 5.52616 16.0857C5.72059 16.0857 5.90704 16.0085 6.04452 15.871C6.182 15.7335 6.25923 15.5471 6.25923 15.3526C6.25923 12.3874 8.38514 9.97556 11 9.97556C13.6149 9.97556 15.7408 12.3874 15.7408 15.3526C15.7408 15.5471 15.818 15.7335 15.9555 15.871C16.093 16.0085 16.2794 16.0857 16.4738 16.0857C16.6683 16.0857 16.8547 16.0085 16.9922 15.871C17.1297 15.7335 17.2069 15.5471 17.2069 15.3526C17.2081 14.4159 17.0312 13.4875 16.6857 12.6168C17.0389 12.4184 17.4366 12.3128 17.8417 12.3097C18.6057 12.3668 19.3163 12.7228 19.8195 13.3003C20.3227 13.8779 20.578 14.6306 20.5299 15.3952C20.5299 15.5896 20.6072 15.776 20.7446 15.9135C20.8821 16.051 21.0686 16.1282 21.263 16.1282C21.4574 16.1282 21.6439 16.051 21.7813 15.9135C21.9188 15.776 21.9961 15.5896 21.9961 15.3952C22.0451 14.2416 21.6357 13.1156 20.8574 12.2628C20.079 11.41 18.9949 10.8998 17.8417 10.8435Z" fill="black"/>
</svg>
