<svg width="20" height="14" viewBox="0 0 20 14" fill="none" xmlns="http://www.w3.org/2000/svg">
<path fill-rule="evenodd" clip-rule="evenodd" d="M19.0513 11.4206V1.50776C19.0513 0.67849 18.4093 0 17.6245 0H2.3741C1.58931 0 0.947266 0.67849 0.947266 1.50776V11.4206H19.0513ZM17.6004 9.96973V1.50776C17.6004 1.49212 17.5964 1.46766 17.5867 1.45091H2.41184C2.40219 1.46766 2.39818 1.49212 2.39818 1.50776V9.96973H17.6004Z" fill="black"/>
<path fill-rule="evenodd" clip-rule="evenodd" d="M0.984839 13.7475H19.0152C19.5569 13.7475 20 13.3043 20 12.7626V11.7778H0V12.7626C0 13.3043 0.443145 13.7475 0.984839 13.7475ZM11.9102 12.001H8.08979V12.3663C8.08979 12.5673 8.24643 12.7316 8.43789 12.7316H11.5621C11.7536 12.7316 11.9102 12.5673 11.9102 12.3663V12.001Z" fill="black"/>
</svg>
