<svg width="17" height="22" viewBox="0 0 17 22" fill="none" xmlns="http://www.w3.org/2000/svg">
<path d="M16.8184 17.5024L15.8706 5.559C15.8115 4.78954 15.1607 4.18676 14.389 4.18676H12.5169V4.10261C12.5169 1.84041 10.6765 0 8.41427 0C6.15207 0 4.31166 1.84041 4.31166 4.10261V4.18676H2.43954C1.6678 4.18676 1.01702 4.7895 0.958153 5.55738L0.0100285 17.504C-0.0633442 18.4606 0.268491 19.4129 0.920389 20.1167C1.57229 20.8205 2.49641 21.2242 3.45577 21.2242H13.3727C14.3321 21.2242 15.2562 20.8205 15.9082 20.1167C16.5601 19.4128 16.8918 18.4606 16.8184 17.5024ZM5.55485 4.10261C5.55485 2.52593 6.83763 1.24319 8.41427 1.24319C9.99091 1.24319 11.2737 2.52597 11.2737 4.10261V4.18676H5.55485V4.10261ZM14.9961 19.2719C14.5725 19.7292 13.996 19.981 13.3727 19.981H3.45581C2.83252 19.981 2.25606 19.7292 1.83249 19.2719C1.40896 18.8147 1.20194 18.2206 1.24953 17.6007L2.19757 5.65405C2.20719 5.52836 2.31348 5.42995 2.43954 5.42995H4.31166V6.96104C4.31166 7.30432 4.58998 7.58263 4.93325 7.58263C5.27653 7.58263 5.55485 7.30432 5.55485 6.96104V5.42995H11.2737V6.96104C11.2737 7.30432 11.552 7.58263 11.8953 7.58263C12.2386 7.58263 12.5169 7.30432 12.5169 6.96104V5.42995H14.389C14.5151 5.42995 14.6214 5.52841 14.6311 5.65571L15.579 17.5991C15.6266 18.2206 15.4196 18.8146 14.9961 19.2719Z" fill="black"/>
</svg>
