<svg width="20" height="20" viewBox="0 0 20 20" fill="none" xmlns="http://www.w3.org/2000/svg">
<path d="M4.03509 16.1403H1.57895C0.708263 16.1403 0 15.4321 0 14.5614V3.33333C0 2.46264 0.708263 1.75438 1.57895 1.75438H4.03509C4.32583 1.75438 4.5614 1.98995 4.5614 2.2807C4.5614 2.57144 4.32583 2.80701 4.03509 2.80701H1.57895C1.28872 2.80701 1.05263 3.0431 1.05263 3.33333V14.5614C1.05263 14.8516 1.28872 15.0877 1.57895 15.0877H4.03509C4.32583 15.0877 4.5614 15.3233 4.5614 15.614C4.5614 15.9048 4.32583 16.1403 4.03509 16.1403Z" fill="black"/>
<path d="M17.3691 12.1404C17.0783 12.1404 16.8428 11.9048 16.8428 11.6141V3.33333C16.8428 3.0431 16.6067 2.80701 16.3164 2.80701H13.8603C13.5696 2.80701 13.334 2.57144 13.334 2.2807C13.334 1.98995 13.5696 1.75438 13.8603 1.75438H16.3164C17.1871 1.75438 17.8954 2.46264 17.8954 3.33333V11.6141C17.8954 11.9048 17.6598 12.1404 17.3691 12.1404Z" fill="black"/>
<path d="M9.29729 17.8947H5.08676C4.21608 17.8947 3.50781 17.1865 3.50781 16.3158V1.57895C3.50781 0.708263 4.21608 0 5.08676 0H12.8061C13.6767 0 14.385 0.708263 14.385 1.57895V11.2947C14.385 11.5855 14.1494 11.821 13.8587 11.821C13.5679 11.821 13.3324 11.5855 13.3324 11.2947V1.57895C13.3324 1.28872 13.0963 1.05263 12.8061 1.05263H5.08676C4.79653 1.05263 4.56044 1.28872 4.56044 1.57895V16.3158C4.56044 16.606 4.79653 16.8421 5.08676 16.8421H9.29729C9.58803 16.8421 9.8236 17.0777 9.8236 17.3684C9.8236 17.6592 9.58803 17.8947 9.29729 17.8947Z" fill="black"/>
<path d="M11.4034 7.01754H6.49116C6.20042 7.01754 5.96484 6.78196 5.96484 6.49122V2.98245C5.96484 2.78303 6.07741 2.60091 6.25576 2.51164C6.43411 2.42273 6.64758 2.44174 6.80691 2.56133L7.84515 3.34018L8.57466 2.61033C8.78025 2.40474 9.11348 2.40491 9.31908 2.61016L10.0493 3.34001L11.0877 2.56133C11.2474 2.44174 11.4607 2.4229 11.6388 2.51164C11.8172 2.6009 11.9297 2.78303 11.9297 2.98245V6.49122C11.9297 6.78196 11.6942 7.01754 11.4034 7.01754ZM7.01748 5.96491H10.8771V4.03491L10.3157 4.45603C10.1065 4.61314 9.81318 4.59241 9.62781 4.40721L8.94713 3.7267L8.26696 4.40721C8.08141 4.59241 7.78827 4.61331 7.57891 4.45621L7.01747 4.03508L7.01748 5.96491Z" fill="black"/>
<path d="M8.94737 14.6801C8.40238 14.6801 7.90587 14.3592 7.71176 13.8814C7.60228 13.6123 7.73198 13.3052 8.0013 13.1958C8.26994 13.0859 8.57747 13.2156 8.68695 13.4853C8.72053 13.5677 8.83001 13.6275 8.94737 13.6275C9.16135 13.6275 9.34211 13.4891 9.34211 13.3253V13.2847C9.34211 13.1171 8.98164 12.9972 8.85742 12.9747C8.35544 12.8911 7.5 12.5123 7.5 11.6276V11.587C7.5 10.84 8.14933 10.2321 8.94737 10.2321C9.49236 10.2321 9.98886 10.553 10.183 11.0309C10.2925 11.3 10.1628 11.607 9.89343 11.7165C9.62462 11.826 9.31709 11.6965 9.20778 11.427C9.1742 11.3446 9.06473 11.2848 8.94737 11.2848C8.73338 11.2848 8.55263 11.4232 8.55263 11.587V11.6276C8.55263 11.7952 8.9131 11.9151 9.03731 11.9375C9.5393 12.0211 10.3947 12.3999 10.3947 13.2847V13.3253C10.3947 14.0723 9.7454 14.6801 8.94737 14.6801Z" fill="black"/>
<path d="M8.94819 11.2848C8.65745 11.2848 8.42188 11.0492 8.42188 10.7585V9.99999C8.42188 9.70925 8.65745 9.47368 8.94819 9.47368C9.23893 9.47368 9.47451 9.70925 9.47451 9.99999V10.7585C9.47451 11.0492 9.23893 11.2848 8.94819 11.2848Z" fill="black"/>
<path d="M8.94819 15.4386C8.65745 15.4386 8.42188 15.203 8.42188 14.9123V14.1538C8.42188 13.8631 8.65745 13.6275 8.94819 13.6275C9.23893 13.6275 9.47451 13.8631 9.47451 14.1538V14.9123C9.47451 15.203 9.23893 15.4386 8.94819 15.4386Z" fill="black"/>
<path d="M15.2642 20C12.6523 20 10.5273 17.875 10.5273 15.2632C10.5273 12.6513 12.6523 10.5263 15.2642 10.5263C17.8761 10.5263 20.001 12.6513 20.001 15.2632C20.001 17.875 17.8761 20 15.2642 20ZM15.2642 11.579C13.2328 11.579 11.58 13.2317 11.58 15.2632C11.58 17.2946 13.2328 18.9474 15.2642 18.9474C17.2956 18.9474 18.9484 17.2946 18.9484 15.2632C18.9484 13.2317 17.2956 11.579 15.2642 11.579Z" fill="black"/>
<path d="M14.6502 17.1932C14.5106 17.1932 14.3767 17.1376 14.2781 17.039L12.6991 15.46C12.4935 15.2546 12.4935 14.9212 12.6991 14.7158C12.9047 14.5102 13.2378 14.5102 13.4434 14.7158L14.6502 15.9224L17.0851 13.4874C17.2903 13.2818 17.6237 13.2818 17.8293 13.4874C18.0349 13.6928 18.0349 14.026 17.8293 14.2316L15.0223 17.039C14.9236 17.1376 14.7898 17.1932 14.6502 17.1932Z" fill="black"/>
</svg>
