<svg width="51" height="51" viewBox="0 0 51 51" fill="none" xmlns="http://www.w3.org/2000/svg">
<g clip-path="url(#clip0_325_379)">
<path fill-rule="evenodd" clip-rule="evenodd" d="M25.5 51C11.419 51 0 39.581 0 25.5C0 11.419 11.419 0 25.5 0C39.581 0 51 11.419 51 25.5C51 39.581 39.581 51 25.5 51ZM21.9916 29.9868L37.2941 14.6846C37.8235 14.1549 38.6929 14.1603 39.2172 14.6846L40.9524 16.4198C41.4767 16.944 41.4767 17.8189 40.9524 18.3429L22.9801 36.3154C22.6587 36.6369 22.2071 36.7634 21.784 36.6907C21.4945 36.6543 21.2152 36.5272 20.9971 36.3094L10.0492 25.3615C9.52596 24.8382 9.51973 23.9678 10.0492 23.4381L11.7844 21.7029C12.3141 21.1734 13.1781 21.1734 13.7078 21.7029L21.9916 29.9868Z" fill="#01A77F"/>
</g>
<defs>
<clipPath id="clip0_325_379">
<rect width="51" height="51" fill="white"/>
</clipPath>
</defs>
</svg>
