<svg width="22" height="20" viewBox="0 0 22 20" fill="none" xmlns="http://www.w3.org/2000/svg">
<path fill-rule="evenodd" clip-rule="evenodd" d="M20 2H2L2 18H20V2ZM2 0C0.895431 0 0 0.895431 0 2V18C0 19.1046 0.89543 20 2 20H20C21.1046 20 22 19.1046 22 18V2C22 0.895431 21.1046 0 20 0H2Z" fill="black"/>
<path fill-rule="evenodd" clip-rule="evenodd" d="M18 8H10V6H18V8Z" fill="black"/>
<path fill-rule="evenodd" clip-rule="evenodd" d="M18 14H10V12H18V14Z" fill="black"/>
<path fill-rule="evenodd" clip-rule="evenodd" d="M8 14H5V12H8V14Z" fill="black"/>
<path fill-rule="evenodd" clip-rule="evenodd" d="M8 8H5V6H8V8Z" fill="black"/>
</svg>
