<svg width="230" height="224" viewBox="0 0 230 224" fill="none" xmlns="http://www.w3.org/2000/svg">
<g clip-path="url(#clip0_324_322)">
<path fill-rule="evenodd" clip-rule="evenodd" d="M114 188C73.1374 188 40 154.863 40 114C40 73.1374 73.1374 40 114 40C154.863 40 188 73.1374 188 114C188 154.863 154.863 188 114 188ZM103.819 127.02L148.226 82.6141C149.762 81.077 152.285 81.0927 153.807 82.6141L158.842 87.6496C160.364 89.171 160.364 91.7097 158.842 93.2305L106.687 145.386C105.755 146.319 104.444 146.686 103.216 146.475C102.376 146.369 101.566 146.001 100.933 145.368L69.1624 113.598C67.644 112.079 67.6259 109.554 69.1624 108.016L74.1979 102.981C75.735 101.444 78.2423 101.444 79.7794 102.981L103.819 127.02Z" fill="#48B02C"/>
</g>
<path d="M42 43.5L36 23L57.5 27.5L42 43.5Z" fill="#5DBA9B"/>
<path d="M31 198.5L25 178L46.5 182.5L31 198.5Z" fill="#5DBA9B"/>
<path d="M210.446 62.5035L195 47.75L215.87 40.8971L210.446 62.5035Z" fill="#5DBA9B"/>
<rect x="115.142" width="7" height="24" transform="rotate(30.3904 115.142 0)" fill="#316FF6"/>
<rect x="227.105" y="153" width="7" height="24" transform="rotate(67.0789 227.105 153)" fill="#5DBA9B"/>
<rect width="7" height="24" transform="matrix(-0.649472 0.760386 0.760386 0.649472 88.5459 203)" fill="#316FF6"/>
<rect x="12.1416" y="127" width="7" height="24" transform="rotate(30.3904 12.1416 127)" fill="#316FF6"/>
<circle cx="158.5" cy="9.5" r="7.5" fill="#FAD350"/>
<circle cx="219.5" cy="120.5" r="7.5" fill="#316FF6"/>
<circle cx="169.5" cy="208.5" r="7.5" fill="#FAD350"/>
<circle cx="21.5" cy="65.5" r="7.5" fill="#FAD350"/>
<defs>
<clipPath id="clip0_324_322">
<rect width="148" height="148" fill="white" transform="translate(40 40)"/>
</clipPath>
</defs>
</svg>
