<svg width="128" height="125" viewBox="0 0 128 125" fill="none" xmlns="http://www.w3.org/2000/svg">
<g clip-path="url(#clip0_336_1765)">
<path fill-rule="evenodd" clip-rule="evenodd" d="M63.4089 105.099C40.7631 105.099 22.3984 86.7342 22.3984 64.0883C22.3984 41.4425 40.7631 23.0779 63.4089 23.0779C86.0548 23.0779 104.419 41.4425 104.419 64.0883C104.419 86.7342 86.0548 105.099 63.4089 105.099ZM57.7666 71.3042L82.3768 46.6944C83.2283 45.8425 84.6265 45.8513 85.4697 46.6944L88.2603 49.4851C89.1034 50.3282 89.1034 51.7351 88.2603 52.578L59.3563 81.4823C58.8393 81.9993 58.1131 82.2027 57.4327 82.0858C56.967 82.0274 56.5179 81.8229 56.1672 81.4726L38.5601 63.8655C37.7186 63.024 37.7086 61.6242 38.5601 60.7723L41.3508 57.9816C42.2026 57.1301 43.5921 57.1301 44.444 57.9816L57.7666 71.3042Z" fill="#306EF5"/>
</g>
<path d="M23.5068 25.0175L20.1816 13.6565L32.0968 16.1504L23.5068 25.0175Z" fill="#5DBA9B"/>
<path d="M17.4101 110.918L14.085 99.5569L26.0002 102.051L17.4101 110.918Z" fill="#5DBA9B"/>
<path d="M116.859 35.5492L108.299 27.3729L119.865 23.575L116.859 35.5492Z" fill="#5DBA9B"/>
<rect x="64.041" y="0.910019" width="3.87937" height="13.3007" transform="rotate(30.3904 64.041 0.910019)" fill="#316FF6"/>
<rect x="126.091" y="85.702" width="3.87937" height="13.3007" transform="rotate(67.0789 126.091 85.702)" fill="#5DBA9B"/>
<rect width="3.87937" height="13.3007" transform="matrix(-0.649472 0.760386 0.760386 0.649472 49.3018 113.412)" fill="#316FF6"/>
<rect x="6.95898" y="71.2929" width="3.87937" height="13.3007" transform="rotate(30.3904 6.95898 71.2929)" fill="#316FF6"/>
<circle cx="88.0705" cy="6.17489" r="4.15647" fill="#FAD350"/>
<circle cx="121.876" cy="67.6906" r="4.15647" fill="#316FF6"/>
<circle cx="94.1662" cy="116.46" r="4.15647" fill="#FAD350"/>
<circle cx="12.1457" cy="37.2098" r="4.15647" fill="#FAD350"/>
<defs>
<clipPath id="clip0_336_1765">
<rect width="82.021" height="82.021" fill="white" transform="translate(22.3984 23.0779)"/>
</clipPath>
</defs>
</svg>
