<svg width="15" height="18" viewBox="0 0 15 18" fill="none" xmlns="http://www.w3.org/2000/svg">
<path d="M14.5343 12.6847C13.4002 11.7262 12.75 10.3252 12.75 8.841V6.75C12.75 4.11075 10.7895 1.926 8.25 1.56V0.75C8.25 0.33525 7.914 0 7.5 0C7.086 0 6.75 0.33525 6.75 0.75V1.56C4.20975 1.926 2.25 4.11075 2.25 6.75V8.841C2.25 10.3252 1.59975 11.7262 0.459 12.6908C0.16725 12.9405 0 13.3035 0 13.6875C0 14.4113 0.58875 15 1.3125 15H13.6875C14.4113 15 15 14.4113 15 13.6875C15 13.3035 14.8327 12.9405 14.5343 12.6847Z" fill="#1B2D3B"/>
<path d="M7.50001 18C8.85826 18 9.99451 17.0317 10.2555 15.75H4.74451C5.00551 17.0317 6.14176 18 7.50001 18Z" fill="#1B2D3B"/>
</svg>
