<svg width="18" height="18" viewBox="0 0 18 18" fill="none" xmlns="http://www.w3.org/2000/svg">
<g clip-path="url(#clip0_12_207)">
<path d="M8.99941 0.5625C13.6558 0.5625 17.4369 4.34369 17.4369 9.00055C17.4341 10.4908 17.0292 11.9492 16.279 13.2347L17.4226 16.6657C17.4959 16.8856 17.2866 17.0949 17.0667 17.0217L13.7851 15.928C12.3785 16.9017 10.7134 17.435 8.99996 17.4375C4.3433 17.4374 0.562462 13.6565 0.562464 9C0.562469 4.34335 4.34303 0.562607 8.99941 0.5625ZM11.8191 8.15625C11.3564 8.15625 10.9753 8.53739 10.9753 9C10.9753 9.46272 11.3564 9.84375 11.8191 9.84375C12.2817 9.84375 12.6623 9.46272 12.6623 9C12.6623 8.53739 12.2817 8.15625 11.8191 8.15625ZM8.99941 8.15625C8.53677 8.15625 8.15566 8.53739 8.15566 9C8.15567 9.46272 8.53677 9.84375 8.99941 9.84375C9.46205 9.84375 9.84316 9.46272 9.84316 9C9.84317 8.53739 9.46206 8.15625 8.99941 8.15625ZM6.19406 8.15625C5.73141 8.15625 5.3503 8.53739 5.3503 9C5.35031 9.46272 5.73142 9.84375 6.19406 9.84375C6.6567 9.84375 7.0378 9.46272 7.03781 9C7.03781 8.53739 6.6567 8.15625 6.19406 8.15625Z" fill="#1B2D3B"/>
</g>
<defs>
<clipPath id="clip0_12_207">
<rect width="18" height="18" fill="white" transform="matrix(-1 0 0 1 18 0)"/>
</clipPath>
</defs>
</svg>
