<svg width="12" height="10" viewBox="0 0 12 10" fill="none" xmlns="http://www.w3.org/2000/svg">
<path d="M7.93531 5.82875C7.93531 6.92096 7.06718 7.80947 6 7.80947C4.93282 7.80947 4.06502 6.92096 4.06502 5.82875C4.06502 4.73654 4.93282 3.84803 6 3.84803C7.06718 3.84803 7.93531 4.73688 7.93531 5.82875ZM12 3.01623V8.64195C12 9.39193 11.4059 10 10.6731 10H1.32692C0.594128 10 0 9.39193 0 8.64195V3.01623C0 2.26625 0.594128 1.65818 1.32692 1.65818H2.95903V1.18829C2.95903 0.532016 3.47852 0 4.12009 0H7.87991C8.52148 0 9.04097 0.532016 9.04097 1.18829V1.65784H10.6731C11.4059 1.65818 12 2.26625 12 3.01623ZM8.9305 5.82875C8.9305 4.17498 7.61586 2.8295 6 2.8295C4.38448 2.8295 3.06983 4.17498 3.06983 5.82875C3.06983 7.48251 4.38448 8.828 6 8.828C7.61586 8.828 8.9305 7.48251 8.9305 5.82875Z" fill="black"/>
</svg>
