<svg width="25" height="25" viewBox="0 0 25 25" fill="none" xmlns="http://www.w3.org/2000/svg">
<path d="M12.4999 2.17227e-06C10.2942 -0.000987012 8.1276 0.581939 6.22018 1.68954C4.31276 2.79715 2.73254 4.38996 1.6401 6.30611C0.547665 8.22226 -0.0180513 10.3935 0.000439155 12.5991C0.0189297 14.8047 0.620968 16.9661 1.74538 18.8636L0.0692398 23.475C0.00678601 23.6466 -0.013392 23.8307 0.0104151 24.0118C0.0342221 24.1928 0.101313 24.3655 0.206005 24.5151C0.310697 24.6647 0.449906 24.7869 0.611843 24.8713C0.773779 24.9557 0.953672 24.9999 1.13629 25C1.26878 24.9997 1.40023 24.9766 1.52492 24.9318L6.13629 23.2545C7.79126 24.235 9.65018 24.8202 11.5683 24.9647C13.4865 25.1092 15.4121 24.809 17.1952 24.0876C18.9784 23.3662 20.571 22.243 21.8491 20.8054C23.1272 19.3678 24.0563 17.6547 24.564 15.7993C25.0717 13.944 25.1444 11.9965 24.7764 10.1084C24.4083 8.22039 23.6095 6.44276 22.4422 4.91392C21.2748 3.38509 19.7703 2.1463 18.0458 1.29399C16.3214 0.44169 14.4235 -0.00113177 12.4999 2.17227e-06Z" fill="black"/>
</svg>
