<svg width="22" height="34" viewBox="0 0 22 34" fill="none" xmlns="http://www.w3.org/2000/svg">
<path d="M7.86107 34C7.73126 34 7.60366 33.9788 7.47606 33.9341C6.99424 33.7599 6.70163 33.2882 6.76984 32.7995L8.64649 19.1261H1.10028C0.684465 19.1261 0.303854 18.8987 0.116849 18.5396C-0.0701563 18.1805 -0.0305554 17.7492 0.220252 17.4262L13.4206 0.427451C13.7264 0.0322293 14.2698 -0.10801 14.7341 0.0874756C15.2005 0.280837 15.4711 0.754677 15.3875 1.23914L13.3986 12.7516H20.9008C21.3056 12.7516 21.6775 12.9662 21.8689 13.3104C22.0603 13.6546 22.0405 14.0711 21.8205 14.4004L8.78069 33.524C8.57169 33.8279 8.22188 34 7.86107 34ZM3.30034 17.0012H9.90053C10.2195 17.0012 10.5187 17.1351 10.7277 17.3646C10.9368 17.5919 11.0336 17.9001 10.9918 18.2039L9.58151 28.4839L18.8592 14.8764H12.1006C11.7772 14.8764 11.4714 14.7404 11.2602 14.5003C11.0512 14.2623 10.961 13.9457 11.016 13.6397L12.4746 5.1871L3.30034 17.0012Z" fill="#A7ACB1"/>
</svg>
