<svg width="22" height="22" viewBox="0 0 22 22" fill="none" xmlns="http://www.w3.org/2000/svg">
<path d="M1.63918e-07 3.75L4.26186e-07 9.75L6.9633 9.75L6.9633 -3.04376e-07L2.52294 -1.10281e-07C1.11009 -4.85237e-08 7.21238e-08 1.65 1.63918e-07 3.75ZM19.4771 -8.5137e-07L7.97248 -3.48488e-07L7.97248 9.9L22 9.9L22 3.9C22 1.65 20.8899 -9.13127e-07 19.4771 -8.5137e-07Z" fill="black"/>
<path d="M22 18.25L22 12.25L15.0367 12.25L15.0367 22L19.4771 22C20.8899 22 22 20.35 22 18.25ZM2.52294 22L14.0275 22L14.0275 12.1L-2.80184e-07 12.1L-1.06133e-07 18.1C-4.08644e-08 20.35 1.11009 22 2.52294 22Z" fill="black"/>
</svg>
