<svg width="36" height="36" viewBox="0 0 36 36" fill="none" xmlns="http://www.w3.org/2000/svg">
<path d="M31.1815 36H4.81846C3.54053 36 2.31493 35.4923 1.41129 34.5887C0.507658 33.6851 0 32.4595 0 31.1815V4.81846C0 3.54053 0.507658 2.31493 1.41129 1.41129C2.31493 0.507658 3.54053 0 4.81846 0H31.1815C32.4595 0 33.6851 0.507658 34.5887 1.41129C35.4923 2.31493 36 3.54053 36 4.81846V31.1815C36 32.4595 35.4923 33.6851 34.5887 34.5887C33.6851 35.4923 32.4595 36 31.1815 36ZM4.81846 2.76923C4.27497 2.76923 3.75374 2.98513 3.36944 3.36944C2.98513 3.75374 2.76923 4.27497 2.76923 4.81846V31.1815C2.76923 31.725 2.98513 32.2463 3.36944 32.6306C3.75374 33.0149 4.27497 33.2308 4.81846 33.2308H31.1815C31.725 33.2308 32.2463 33.0149 32.6306 32.6306C33.0149 32.2463 33.2308 31.725 33.2308 31.1815V4.81846C33.2308 4.27497 33.0149 3.75374 32.6306 3.36944C32.2463 2.98513 31.725 2.76923 31.1815 2.76923H4.81846Z" fill="#1C6BEA"/>
<path d="M1.38461 30.5723C1.18517 30.5717 0.988155 30.5286 0.806698 30.4458C0.625242 30.363 0.463516 30.2425 0.332305 30.0923C0.214208 29.9531 0.124792 29.792 0.0692008 29.6181C0.0136097 29.4443 -0.00705974 29.2612 0.00838204 29.0793C0.0238238 28.8974 0.075072 28.7204 0.159178 28.5584C0.243284 28.3964 0.358589 28.2527 0.498459 28.1354L9.95077 20.16C10.6565 19.5644 11.5598 19.2548 12.4826 19.2924C13.4053 19.33 14.2804 19.712 14.9354 20.3631L19.4215 24.8492C19.5887 24.9923 19.8015 25.0708 20.0215 25.0708C20.2416 25.0708 20.4543 24.9923 20.6215 24.8492L24.9785 21.6923C25.6241 21.1953 26.416 20.9258 27.2308 20.9258C28.0455 20.9258 28.8374 21.1953 29.4831 21.6923L35.4831 26.4739C35.6261 26.5878 35.7453 26.7288 35.8339 26.8888C35.9224 27.0488 35.9786 27.2247 35.9991 27.4064C36.0197 27.5882 36.0043 27.7721 35.9538 27.9479C35.9032 28.1237 35.8186 28.2877 35.7046 28.4308C35.5907 28.5738 35.4497 28.693 35.2897 28.7816C35.1296 28.8701 34.9538 28.9263 34.772 28.9468C34.5903 28.9674 34.4063 28.952 34.2306 28.9015C34.0548 28.8509 33.8907 28.7663 33.7477 28.6523L27.7662 23.8523C27.6047 23.7281 27.4068 23.6607 27.2031 23.6607C26.9994 23.6607 26.8014 23.7281 26.64 23.8523L22.2831 27.2308C21.5739 27.7633 20.6967 28.0228 19.812 27.9617C18.9272 27.9007 18.094 27.5233 17.4646 26.8985L12.9785 22.32C12.8088 22.1669 12.5885 22.0822 12.36 22.0822C12.1315 22.0822 11.9112 22.1669 11.7415 22.32L2.27077 30.2585C2.02347 30.4675 1.70837 30.5791 1.38461 30.5723Z" fill="#1C6BEA"/>
<path d="M23.5386 17.5385C22.5345 17.5385 21.5529 17.2407 20.718 16.6828C19.8831 16.125 19.2324 15.3321 18.8481 14.4044C18.4639 13.4767 18.3633 12.4559 18.5592 11.4711C18.7551 10.4863 19.2386 9.58163 19.9487 8.87161C20.6587 8.16159 21.5633 7.67806 22.5481 7.48217C23.533 7.28627 24.5538 7.38681 25.4815 7.77107C26.4091 8.15533 27.202 8.80605 27.7599 9.64095C28.3178 10.4758 28.6155 11.4574 28.6155 12.4615C28.6155 13.808 28.0806 15.0994 27.1285 16.0515C26.1764 17.0036 24.8851 17.5385 23.5386 17.5385ZM23.5386 10.1538C23.0822 10.1538 22.636 10.2892 22.2565 10.5428C21.877 10.7963 21.5812 11.1567 21.4066 11.5784C21.2319 12.0001 21.1862 12.4641 21.2752 12.9117C21.3643 13.3594 21.5841 13.7706 21.9068 14.0933C22.2295 14.4161 22.6407 14.6358 23.0884 14.7249C23.536 14.8139 24 14.7682 24.4217 14.5936C24.8434 14.4189 25.2038 14.1231 25.4574 13.7436C25.7109 13.3641 25.8463 12.918 25.8463 12.4615C25.8463 11.8495 25.6032 11.2625 25.1704 10.8298C24.7376 10.397 24.1506 10.1538 23.5386 10.1538Z" fill="#1C6BEA"/>
</svg>
