<svg width="12" height="10" viewBox="0 0 12 10" fill="none" xmlns="http://www.w3.org/2000/svg">
<path d="M0.45283 9.98868H2.2717C2.52178 9.98868 2.72453 9.78593 2.72453 9.53585V3.16981C2.72453 2.91973 2.52178 2.71698 2.2717 2.71698H0.45283C0.202747 2.71698 0 2.91973 0 3.16981V9.53585C0 9.78593 0.202747 9.98868 0.45283 9.98868Z" fill="black"/>
<path d="M9.05635 9.97736H10.8752C11.1253 9.97736 11.328 9.77461 11.328 9.52453V5.88679C11.328 5.63671 11.1253 5.43396 10.8752 5.43396H9.05635C8.80626 5.43396 8.60352 5.63671 8.60352 5.88679V9.52453C8.60352 9.77461 8.80626 9.97736 9.05635 9.97736Z" fill="black"/>
<path d="M4.75556 10H6.57443C6.82452 10 7.02726 9.79725 7.02726 9.54717V0.45283C7.02726 0.202747 6.82452 0 6.57443 0H4.75556C4.50548 0 4.30273 0.202747 4.30273 0.45283V9.54717C4.30273 9.79725 4.50548 10 4.75556 10Z" fill="black"/>
</svg>
