<svg width="11" height="11" viewBox="0 0 11 11" fill="none" xmlns="http://www.w3.org/2000/svg">
<path d="M8.37891 7.13281C7.74209 7.13281 7.18092 7.44608 6.82844 7.92247L3.78104 6.36204C3.83163 6.18958 3.86719 6.01086 3.86719 5.82227C3.86719 5.56647 3.81474 5.32329 3.72414 5.09962L6.91339 3.18046C7.26831 3.597 7.79 3.86719 8.37891 3.86719C9.44515 3.86719 10.3125 2.99984 10.3125 1.93359C10.3125 0.867346 9.44515 0 8.37891 0C7.31266 0 6.44531 0.867346 6.44531 1.93359C6.44531 2.17931 6.49591 2.41239 6.57985 2.62879L3.3811 4.55357C3.02648 4.14941 2.51232 3.88867 1.93359 3.88867C0.867346 3.88867 0 4.75602 0 5.82227C0 6.88851 0.867346 7.75586 1.93359 7.75586C2.58092 7.75586 3.15156 7.4334 3.50271 6.94362L6.54008 8.49898C6.48414 8.67958 6.44531 8.86768 6.44531 9.06641C6.44531 10.1327 7.31266 11 8.37891 11C9.44515 11 10.3125 10.1327 10.3125 9.06641C10.3125 8.00016 9.44515 7.13281 8.37891 7.13281Z" fill="black"/>
</svg>
