<svg width="18" height="10" viewBox="0 0 18 10" fill="none" xmlns="http://www.w3.org/2000/svg">
<path d="M9.62756 0H1.8622C0.837989 0 0 0.837989 0 1.8622V8.1378C0 9.16201 0.837989 10 1.8622 10H9.62756C10.6518 10 11.4898 9.16201 11.4898 8.1378V1.8622C11.4898 0.819367 10.6518 0 9.62756 0Z" fill="black"/>
<path d="M15.6435 1.02423C15.5317 1.04285 15.42 1.09871 15.3269 1.15458L12.4219 2.83056V7.15086L15.3455 8.82684C15.8856 9.14341 16.556 8.95719 16.8725 8.41715C16.9656 8.24955 17.0215 8.06333 17.0215 7.85849V2.1043C17.0215 1.41529 16.3697 0.856629 15.6435 1.02423Z" fill="black"/>
</svg>
